<svg display="none" xmlns="http://www.w3.org/2000/svg">
	<symbol id="brush" viewBox="0 0 511.999 511.999">
		<path d="M505.562,6.752c-13.298-13.303-34.774-2.552-50.858,7.176c-16.559,10.017-38.354,26.164-64.781,47.994
		c-56.335,46.536-120.414,107.515-172.207,159.311l-0.049-0.031c-29.104,29.378-56.786,58.12-89.148,95.548
		c-14.94-2.252-31.88-0.335-47.596,6.256l-0.36,0.157c-32.348,14.573-53.481,46.966-53.838,82.525v0.151
		c0,39.443-6.867,71.156-13.649,82.096L0,509.023l24.748,1.777c6.072,0.436,12.434,0.66,18.993,0.66
		c48.183,0,106.94-12.101,138.623-41.167l0.086-0.08c16.334-15.222,24.274-36.279,24.274-64.375c0-3.357-0.203-6.69-0.603-10.05
		c37.324-32.277,66.067-59.798,95.99-89.172l-0.057-0.096c61.123-61.118,115.605-125.408,154.634-179.145
		c19.632-27.03,34.857-50.875,44.029-68.956C510.122,39.88,518.052,19.242,505.562,6.752z M162.038,448.228
		c-21.268,19.471-67.946,32.623-114.347,33.24c5.668-19.905,9.026-46.957,9.032-75.549c0.267-23.818,14.376-45.505,35.981-55.322
		c12.829-5.332,25.726-6.146,39.373-2.357c1.649,0,15.504,3.471,27.138,15.105C184.093,388.222,180.547,430.932,162.038,448.228z
		M196.582,364.287c-4.177-8.126-9.613-15.614-16.153-22.155c-6.246-6.246-13.202-11.39-20.798-15.417
		c19.514-22.191,40.678-45.002,62.29-67.121c7.862,5.64,15.296,11.952,22.194,18.851l0.147,0.146
		c7.291,7.094,13.903,14.915,19.744,23.342C241.348,323.915,218.767,344.785,196.582,364.287z M424.357,120.686
		c-38.692,51.833-89.104,109.891-138.767,159.859c-6.143-8.358-12.942-16.184-20.335-23.385
		c-6.884-6.878-14.235-13.25-21.962-19.071c55.34-55.198,110.038-106.065,154.357-143.526c45.014-38.049,68.9-53.497,80.983-59.763
		C468.191,60.07,440.724,98.76,424.357,120.686z"/>
	</symbol>
	<symbol id="dekstop" viewBox="0 0 512 512">
		<g><path d="m474.5 18.5h-437c-20.678 0-37.5 16.822-37.5 37.5v330c0 20.678 16.822 37.5 37.5 37.5h160.057l-9.027 31.594c-3.625 12.688-17.835 23.406-31.03 23.406h-56.5c-4.142 0-7.5 3.357-7.5 7.5s3.358 7.5 7.5 7.5h310c4.142 0 7.5-3.357 7.5-7.5s-3.358-7.5-7.5-7.5h-56.5c-13.195 0-27.405-10.719-31.03-23.406l-9.027-31.594h160.057c20.678 0 37.5-16.822 37.5-37.5v-330c0-20.678-16.822-37.5-37.5-37.5zm-437 15h437c12.407 0 22.5 10.094 22.5 22.5v262.5h-482v-262.5c0-12.406 10.093-22.5 22.5-22.5zm271.547 425.715c2.058 7.205 6.149 13.824 11.512 19.285h-129.118c5.363-5.461 9.454-12.081 11.512-19.285l10.204-35.715h85.685zm165.453-50.715h-437c-12.407 0-22.5-10.094-22.5-22.5v-52.5h482v52.5c0 12.406-10.093 22.5-22.5 22.5z"/>
		<path d="m37.5 303.5h437c4.142 0 7.5-3.357 7.5-7.5v-240c0-4.143-3.358-7.5-7.5-7.5h-437c-4.142 0-7.5 3.357-7.5 7.5v105c0 4.143 3.358 7.5 7.5 7.5s7.5-3.357 7.5-7.5v-97.5h422v225h-422v-97.5c0-4.143-3.358-7.5-7.5-7.5s-7.5 3.357-7.5 7.5v105c0 4.143 3.358 7.5 7.5 7.5z"/>
		<path d="m256 348.5c-12.407 0-22.5 10.094-22.5 22.5s10.093 22.5 22.5 22.5 22.5-10.094 22.5-22.5-10.093-22.5-22.5-22.5zm0 30c-4.136 0-7.5-3.364-7.5-7.5s3.364-7.5 7.5-7.5 7.5 3.364 7.5 7.5-3.364 7.5-7.5 7.5z"/></g>
	</symbol>
	<symbol id="diagram" viewBox="0 0 512 512">
		<g><path d="m374.379 13.586c-28.379-10.689-58.38-15.107-89.166-13.125-7.894.507-14.037 7.058-14.037 14.969v210.396c0 8.284 6.716 15 15 15h210.396c7.911 0 14.461-6.143 14.969-14.037 1.979-30.789-2.437-60.789-13.126-89.168-21.44-56.927-67.037-102.568-124.036-124.035zm-73.204 197.239v-180.818c48.16.424 92.937 19.139 127.308 53.511 34.372 34.372 53.087 79.147 53.511 127.307z"/>
		<path d="m409.922 271.184h-169.104v-169.106c0-7.911-6.143-14.462-14.038-14.969-61.78-3.989-120.848 18.197-164.491 61.84-40.168 40.158-62.289 93.562-62.289 150.378 0 56.812 22.121 110.22 62.288 150.386 40.166 40.166 93.574 62.287 150.387 62.287 91.163 0 168.919-57.483 199.092-137.603 10.687-28.379 15.103-58.381 13.124-89.176-.507-7.894-7.058-14.037-14.969-14.037zm-315.38 167.487 116.273-116.271v159.592c-42.143-.418-83.071-15.074-116.273-43.321zm-11.041-268.507c34.375-34.375 79.144-53.089 127.318-53.508v163.315l-137.49 137.488c-28.038-32.964-43.329-74.368-43.329-118.132 0-48.8 18.999-94.671 53.501-129.163zm157.317 309.684v-178.665h154.527c-.81 92.486-69.492 165.492-154.527 178.665z"/></g>
	</symbol>
	<symbol id="game-boy" viewBox="0 0 512 512">
		<g>
		<path d="M413.867,0H98.133c-9.426,0-17.067,7.641-17.067,17.067v477.867c0,9.426,7.641,17.067,17.067,17.067h256
		c42.415,0,76.8-34.385,76.8-76.8V17.067C430.933,7.641,423.292,0,413.867,0z M413.867,435.2c0,32.99-26.744,59.733-59.733,59.733
		h-256V17.067h315.733V435.2z"/>
		<path d="M379.733,34.133H132.267c-9.426,0-17.067,7.641-17.067,17.067v187.733c0,9.426,7.641,17.067,17.067,17.067h230.4
		c18.851,0,34.133-15.282,34.133-34.133V51.2C396.8,41.774,389.159,34.133,379.733,34.133z M379.733,221.867
		c0,9.426-7.641,17.067-17.067,17.067h-230.4V51.2h247.467V221.867z"/>
		<path d="M317.525,412.075c-0.83-0.752-1.783-1.358-2.816-1.792c-3.178-1.336-6.847-0.629-9.301,1.792
		c-0.754,0.829-1.36,1.782-1.792,2.816c-0.437,1.026-0.669,2.128-0.683,3.243c-0.013,2.268,0.877,4.448,2.475,6.059
		c1.635,1.559,3.799,2.443,6.059,2.475c1.115-0.013,2.217-0.245,3.243-0.683c1.033-0.434,1.986-1.04,2.816-1.792
		c0.017-0.016,0.033-0.033,0.049-0.049C320.894,420.796,320.871,415.393,317.525,412.075z"/>
		<path d="M317.525,446.208c-0.016-0.017-0.033-0.033-0.049-0.049c-3.346-3.319-8.749-3.297-12.068,0.049
		c-1.559,1.635-2.443,3.799-2.475,6.059c0.013,1.115,0.245,2.217,0.683,3.243c0.406,1.047,1.015,2.004,1.792,2.816
		c1.635,1.559,3.799,2.443,6.059,2.475c2.293,0.013,4.494-0.896,6.108-2.524C320.894,454.93,320.872,449.527,317.525,446.208z"/>
		<path d="M353.451,457.557c-0.393-1.054-1.004-2.013-1.792-2.816c-0.016-0.017-0.033-0.033-0.049-0.049
		c-3.346-3.319-8.749-3.297-12.068,0.049c-0.79,0.801-1.401,1.761-1.792,2.816c-0.437,1.026-0.669,2.128-0.683,3.243
		c0,4.713,3.82,8.533,8.533,8.533s8.533-3.82,8.533-8.533C354.12,459.685,353.888,458.583,353.451,457.557z"/>
		<path d="M353.451,423.424c-0.393-1.054-1.004-2.013-1.792-2.816c-0.016-0.017-0.033-0.033-0.049-0.049
		c-3.346-3.319-8.749-3.297-12.068,0.049c-0.79,0.801-1.401,1.761-1.792,2.816c-0.437,1.026-0.669,2.128-0.683,3.243
		c-0.013,2.268,0.877,4.448,2.475,6.059c1.635,1.559,3.799,2.443,6.059,2.475c2.259-0.031,4.423-0.915,6.059-2.475
		c1.597-1.61,2.488-3.79,2.475-6.059C354.12,425.552,353.888,424.45,353.451,423.424z"/>
		<path d="M345.6,384c-4.713,0-8.533,3.821-8.533,8.533c0.013,1.115,0.245,2.217,0.683,3.243c0.393,1.054,1.004,2.013,1.792,2.816
		c1.635,1.559,3.799,2.443,6.059,2.475c2.259-0.031,4.423-0.915,6.059-2.475c0.788-0.803,1.399-1.762,1.792-2.816
		c0.437-1.026,0.669-2.128,0.683-3.243C354.133,387.821,350.313,384,345.6,384z"/>
		<path d="M387.584,380.757c-0.776-2.144-2.464-3.832-4.608-4.608c-3.178-1.336-6.847-0.629-9.301,1.792
		c-0.754,0.829-1.36,1.782-1.792,2.816c-0.437,1.026-0.669,2.128-0.683,3.243c0,4.713,3.821,8.533,8.533,8.533
		c4.713,0,8.533-3.82,8.533-8.533C388.253,382.885,388.021,381.783,387.584,380.757z"/>
		<path d="M379.832,409.6c-4.713-0.027-8.555,3.771-8.583,8.484c-0.027,4.713,3.771,8.555,8.484,8.583
		c2.259-0.031,4.423-0.915,6.059-2.475c1.603-1.59,2.511-3.751,2.524-6.009C388.343,413.47,384.545,409.628,379.832,409.6z"/>
		<path d="M385.792,446.208c-0.83-0.752-1.783-1.358-2.816-1.792c-3.178-1.336-6.847-0.629-9.301,1.792
		c-0.017,0.016-0.033,0.033-0.049,0.049c-3.319,3.346-3.297,8.749,0.049,12.068c1.61,1.597,3.79,2.488,6.059,2.475
		c1.115-0.013,2.217-0.245,3.243-0.683c1.033-0.434,1.986-1.04,2.816-1.792c0.017-0.016,0.033-0.033,0.049-0.049
		C389.16,454.93,389.138,449.527,385.792,446.208z"/>
		<path d="M226.133,315.733h-25.6v-25.6c0-4.713-3.821-8.533-8.533-8.533h-34.133c-4.713,0-8.533,3.82-8.533,8.533v25.6h-25.6
		c-4.713,0-8.533,3.82-8.533,8.533V358.4c0,4.713,3.82,8.533,8.533,8.533h25.6v25.6c0,4.713,3.82,8.533,8.533,8.533H192c4.713,0,8.533-3.821,8.533-8.533v-25.6h25.6c4.713,0,8.533-3.82,8.533-8.533v-34.133
		C234.667,319.554,230.846,315.733,226.133,315.733z M217.6,349.867H192c-4.713,0-8.533,3.82-8.533,8.533V384H166.4v-25.6
		c0-4.713-3.82-8.533-8.533-8.533h-25.6V332.8h25.6c4.713,0,8.533-3.82,8.533-8.533v-25.6h17.067v25.6
		c0,4.713,3.82,8.533,8.533,8.533h25.6V349.867z"/>
		<path d="M290.133,307.2c-16.495,0-29.867,13.372-29.867,29.867c0,16.495,13.372,29.867,29.867,29.867S320,353.562,320,337.067
		C320,320.572,306.628,307.2,290.133,307.2z M290.133,349.867c-7.069,0-12.8-5.731-12.8-12.8c0-7.069,5.731-12.8,12.8-12.8
		s12.8,5.731,12.8,12.8C302.933,344.136,297.203,349.867,290.133,349.867z"/>
		<path d="M366.933,273.067c-16.495,0-29.867,13.372-29.867,29.867s13.372,29.867,29.867,29.867
		c16.495,0,29.867-13.372,29.867-29.867S383.428,273.067,366.933,273.067z M366.933,315.733c-7.069,0-12.8-5.731-12.8-12.8
		s5.731-12.8,12.8-12.8c7.069,0,12.8,5.731,12.8,12.8S374.003,315.733,366.933,315.733z"/>
		<path d="M209.067,68.267h-25.6c-4.713,0-8.533,3.82-8.533,8.533s3.82,8.533,8.533,8.533h25.6c4.713,0,8.533-3.82,8.533-8.533
		S213.78,68.267,209.067,68.267z"/>
		<path d="M165.717,73.557c-0.434-1.033-1.04-1.986-1.792-2.816c-2.454-2.421-6.124-3.128-9.301-1.792
		c-2.137,0.786-3.822,2.471-4.608,4.608c-0.437,1.026-0.669,2.128-0.683,3.243c0.031,2.259,0.915,4.423,2.475,6.059
		c0.83,0.752,1.783,1.358,2.816,1.792c1.026,0.437,2.128,0.669,3.243,0.683c2.259-0.031,4.423-0.915,6.059-2.475
		c0.752-0.83,1.358-1.783,1.792-2.816C166.63,77.977,166.63,75.623,165.717,73.557z"/>	
		</g>
	</symbol>
	<symbol id="heart" viewBox="0 -28 512.001 512">
		<path d="m256 455.515625c-7.289062 0-14.316406-2.640625-19.792969-7.4375-20.683593-18.085937-40.625-35.082031-58.21875-50.074219l-.089843-.078125c-51.582032-43.957031-96.125-81.917969-127.117188-119.3125-34.644531-41.804687-50.78125-81.441406-50.78125-124.742187 0-42.070313 14.425781-80.882813 40.617188-109.292969 26.503906-28.746094 62.871093-44.578125 102.414062-44.578125 29.554688 0 56.621094 9.34375 80.445312 27.769531 12.023438 9.300781 22.921876 20.683594 32.523438 33.960938 9.605469-13.277344 20.5-24.660157 32.527344-33.960938 23.824218-18.425781 50.890625-27.769531 80.445312-27.769531 39.539063 0 75.910156 15.832031 102.414063 44.578125 26.191406 28.410156 40.613281 67.222656 40.613281 109.292969 0 43.300781-16.132812 82.9375-50.777344 124.738281-30.992187 37.398437-75.53125 75.355469-127.105468 119.308594-17.625 15.015625-37.597657 32.039062-58.328126 50.167969-5.472656 4.789062-12.503906 7.429687-19.789062 7.429687zm-112.96875-425.523437c-31.066406 0-59.605469 12.398437-80.367188 34.914062-21.070312 22.855469-32.675781 54.449219-32.675781 88.964844 0 36.417968 13.535157 68.988281 43.882813 105.605468 29.332031 35.394532 72.960937 72.574219 123.476562 115.625l.09375.078126c17.660156 15.050781 37.679688 32.113281 58.515625 50.332031 20.960938-18.253907 41.011719-35.34375 58.707031-50.417969 50.511719-43.050781 94.136719-80.222656 123.46875-115.617188 30.34375-36.617187 43.878907-69.1875 43.878907-105.605468 0-34.515625-11.605469-66.109375-32.675781-88.964844-20.757813-22.515625-49.300782-34.914062-80.363282-34.914062-22.757812 0-43.652344 7.234374-62.101562 21.5-16.441406 12.71875-27.894532 28.796874-34.609375 40.046874-3.453125 5.785157-9.53125 9.238282-16.261719 9.238282s-12.808594-3.453125-16.261719-9.238282c-6.710937-11.25-18.164062-27.328124-34.609375-40.046874-18.449218-14.265626-39.34375-21.5-62.097656-21.5zm0 0"/>
	</symbol>
	<symbol id="paper-plane" viewBox="0 0 512 512">
		<path d="m510.018 428.548-241-421c-2.598-4.547-7.569-7.548-13.018-7.548-5.274 0-10.322 2.83-13.018 7.548l-241 421c-3.03 5.293-2.553 11.893 1.205 16.696s10.049 6.853 15.917 5.185l196.073-55.755 26.265 105.937c1.658 6.69 7.664 11.389 14.558 11.389s12.9-4.699 14.559-11.39l26.266-105.937 196.073 55.755c5.84 1.661 12.142-.361 15.916-5.185 3.757-4.802 4.234-11.402 1.204-16.695zm-298.107-64.137-165.604 47.092 189.15-330.423zm44.089 70.257-14.847-59.884 14.847-178.661 14.847 178.662zm44.088-70.257-23.545-283.331 189.149 330.423z"/>
	</symbol>
	<symbol id="play-button" viewBox="0 0 512 512">
		<g>
		<path d="M256,0C114.833,0,0,114.844,0,256s114.833,256,256,256s256-114.844,256-256S397.167,0,256,0z M256,490.667
		C126.604,490.667,21.333,385.396,21.333,256S126.604,21.333,256,21.333S490.667,126.604,490.667,256S385.396,490.667,256,490.667z"/>
		<path d="M357.771,247.031l-149.333-96c-3.271-2.135-7.5-2.25-10.875-0.396C194.125,152.51,192,156.094,192,160v192
		c0,3.906,2.125,7.49,5.563,9.365c1.583,0.865,3.354,1.302,5.104,1.302c2,0,4.021-0.563,5.771-1.698l149.333-96
		c3.042-1.958,4.896-5.344,4.896-8.969S360.813,248.99,357.771,247.031z M213.333,332.458V179.542L332.271,256L213.333,332.458z"/>
		</g>
	</symbol>
	<symbol id="smartphone" viewBox="0 0 512 512">
		<g>
		<path d="
		M414.32,461.913V50.087C414.32,22.472,391.853,0,364.233,0H147.746c-27.615,0-50.087,22.472-50.087,50.087v411.826c0,27.62,22.472,50.087,50.087,50.087h217.044c13.384,0,26.401-5.504,35.712-15.098
		C409.806,487.307,414.709,474.702,414.32,461.913z M376.532,473.645c-3.1,3.206-7.268,4.964-11.743,4.964H147.746
		c-9.205,0-16.696-7.491-16.696-16.696V50.087c0-9.205,7.491-16.696,16.696-16.696h216.487c9.205,0,16.696,7.491,6.696,16.696l0.006,412.327C381.062,466.599,379.498,470.589,376.532,473.645z"/>
		<path d="M270.181,432.417h-27.826c-9.222,0-16.696,7.474-16.696,16.696s7.474,16.696,16.696,16.696h27.826
		c9.222,0,16.696-7.474,16.696-16.696S279.402,432.417,270.181,432.417z"/>
		</g>
	</symbol>
	<symbol id="left-quote" viewBox="0 0 95.333 95.332">
		<g>
		<path d="M30.512,43.939c-2.348-0.676-4.696-1.019-6.98-1.019c-3.527,0-6.47,0.806-8.752,1.793
		c2.2-8.054,7.485-21.951,18.013-23.516c0.975-0.145,1.774-0.85,2.04-1.799l2.301-8.23c0.194-0.696,0.079-1.441-0.318-2.045
		s-1.035-1.007-1.75-1.105c-0.777-0.106-1.569-0.16-2.354-0.16c-12.637,0-25.152,13.19-30.433,32.076
		c-3.1,11.08-4.009,27.738,3.627,38.223c4.273,5.867,10.507,9,18.529,9.313c0.033,0.001,0.065,0.002,0.098,0.002
		c9.898,0,18.675-6.666,21.345-16.209c1.595-5.705,0.874-11.688-2.032-16.851C40.971,49.307,36.236,45.586,30.512,43.939z"/>
		<path d="M92.471,54.413c-2.875-5.106-7.61-8.827-13.334-10.474c-2.348-0.676-4.696-1.019-6.979-1.019
		c-3.527,0-6.471,0.806-8.753,1.793c2.2-8.054,7.485-21.951,18.014-23.516c0.975-0.145,1.773-0.85,2.04-1.799l2.301-8.23
		c0.194-0.696,0.079-1.441-0.318-2.045c-0.396-0.604-1.034-1.007-1.75-1.105c-0.776-0.106-1.568-0.16-2.354-0.16
		c-12.637,0-25.152,13.19-30.434,32.076c-3.099,11.08-4.008,27.738,3.629,38.225c4.272,5.866,10.507,9,18.528,9.312
		c0.033,0.001,0.065,0.002,0.099,0.002c9.897,0,18.675-6.666,21.345-16.209C96.098,65.559,95.376,59.575,92.471,54.413z"/>
		</g>
	</symbol>
	<symbol id="barneys-new-york" viewBox="5.915 3.969 251.869 64.497">
		<path d="m48.912 17.175v.153l.076.077h6.033l.076-.077v-.153l-3.207-8.139zm7.484 10.366v-.076l.688-.077.61-.23.534-.307.306-.385.076-.46-.152-.691-2.825-6.68v-.155l-.153-.153h-7.025v.077l-.077.153-2.673 6.987-.152.614.152.461.382.384.688.307.993.154v.076h-5.881v-.076l.84-.154.611-.23.458-.384.382-.614 8.401-22.113h.152l9.164 21.883.458.691.535.461.688.307.84.154v.076zm104.78 0v-.076l.382-.077.535-.077.534-.153.458-.307.306-.461.153-.691.076-2.149v-2.457l.076-2.534v-5.682l-.076-3.148-.076-2.764-.153-.691-.306-.461-.458-.307-.534-.153-.535-.077-.382-.077v-.078h15.427l.153 1.305.076 1.536.076 1.459h-.152l-.229-.768-.306-.769-.382-.69-.458-.538-.688-.23-1.68-.153h-3.896l-2.062.153h-.152l-.229.077-.229.23v8.292l.076.23.077.153.152.077h6.491l.688-.077.535-.384.382-.46.152-.691.152-.768h.077v6.449h-.077l-.152-.69-.306-1.229-.382-.538-.458-.307-.611-.154h-6.491l-.152.077-.153.308v8.983l.229.23.229.076h.152l1.451.077 1.527.076h3.513l1.069-.076.916-.077.611-.23.458-.384.306-.537.306-.614.229-.691.152-.614h.152v1.075l-.152 2.304-.076.921h-16.341zm42.004 0v-.076l.382-.077.534-.077.535-.153.458-.307.306-.461.152-.691.076-2.688v-6.065l-1.374-2.61-.84-1.689-.917-1.689-.84-1.612-.916-1.382-.917-1.229-1.069-.922-1.146-.537-1.222-.23v-.156l.611-.153.687-.077h.535l1.527.153 1.298.308.993.614.916.845.764.998.764 1.151.765 1.382 2.749 5.222.764-1.151.84-1.383.917-1.535.916-1.459.764-1.459.688-1.229.229-.537-.076-.461-.306-.308-.458-.307-1.375-.308v-.075h5.957v.076l-.916.154-.764.46-.611.769-5.575 8.983-.305.614-.153.537-.076.614v2.994l.076 2.842.153 2.533.152.691.306.461.458.307.534.153.917.154v.076h-7.867zm-190.926-21.653-.458.23-.152.307-.077.461v7.602l.153.384.458.23.84.077h1.223l1.146-.077.992-.307.84-.538.764-.69.611-.922.306-1.151.152-1.306-.152-1.306-.382-1.151-.688-.845-.916-.614-1.224-.307-1.45-.154h-1.223zm.153 10.289-.535.153-.229.307-.077.385v8.062l.077.691.382.537.61.308.993.153 1.298.077 1.299-.077 1.222-.384 1.146-.538.917-.768.687-.998.459-1.306.152-1.458-.152-1.383-.382-1.151-.611-.922-.84-.69-.993-.538-1.146-.307-1.146-.153-1.298-.077h-1.069zm-.229 11.517-1.527-.076h-1.452l-1.375-.077h-1.68v-.076l.764-.23.611-.23.534-.308.306-.537.152-.691.077-2.994.076-3.148v-6.449l-.075-3.151-.077-2.764-.153-.691-.381-.461-.458-.307-.459-.153-.535-.077-.458-.077v-.076l1.756-.077h1.833l1.757-.076 1.604-.077h1.299l1.146.077 1.222.153 1.146.23 1.069.384.916.537.841.691.61.845.382 1.074.153 1.229-.153 1.229-.382 1.075-.61.922-.688.768-.917.691-.916.537.992.23 1.069.46 1.069.614.917.845.764.998.534 1.229.152 1.383-.152 1.305-.382 1.306-.611 1.075-.916.998-1.222.768-1.527.614-1.833.384-2.139.153h-2.673zm230.333 0-1.986-.307-1.833-.537-.076-.077-.152-.077-.076-.153v-4.3h.076l.534 1.612.688 1.306.84.921 1.069.614 1.299.384 1.604.077 1.146-.153 1.069-.384.764-.691.61-.845.382-1.229.153-1.382-.153-1.151-.382-.922-.687-.845-.841-.69-.916-.538-1.069-.614-1.069-.537-1.146-.614-1.069-.614-.916-.691-.84-.845-.688-1.074-.382-1.152-.153-1.459.153-1.535.534-1.306.84-1.151 1.069-.922 1.375-.69 1.527-.384 1.68-.154 2.215.23 1.986.461.305.077.306.153.077.077v.153l-.229 4.069h-.153l-.381-1.382-.459-1.152-.688-.845-.916-.537-1.146-.384-1.451-.077-.84.077-.84.23-.764.384-.688.537-.535.769-.306.921-.152 1.151.152 1.229.383.999.534.921.764.691.916.614.993.537.993.461 1.069.46.992.538.993.614.916.69.764.845.535.998.382 1.152.152 1.459-.229 1.535-.535 1.306-.84 1.151-1.069.922-1.298.69-1.451.384-1.527.154zm-102.871.538-16.038-20.732v10.75l.077 2.533v2.381l.076 2.227.229.69.459.538.687.384.841.23 1.069.23v.076h-7.408v-.076l.84-.23.688-.23.611-.384.305-.538.153-.69.076-2.841.076-3.148v-6.296l-.076-1.689v-1.766l-.076-1.536v-1.229l-.153-.845-.382-.614-.534-.384-.535-.307-.61-.154h-.535v-.153l2.063-.23 1.222.077 1.069.384.993.537.916.769.916 1.074 1.069 1.229 10.463 13.283v-10.903l-.152-3.379-.153-.845-.458-.614-.84-.384-1.146-.23v-.076h6.567v.076l-.84.23-.611.23-.534.384-.306.538-.152.69-.076 2.227-.077 2.534v5.375l.077 2.764.076 2.841.152 2.765.076 2.457zm-50.939-22.267-.459.153-.229.307-.076.538v8.906l.076.384.306.23.534.153h.84l1.069-.076 1.069-.23.993-.384.916-.614.764-.768.611-.922.382-1.075.152-1.305-.152-1.459-.306-1.306-.61-.997-.764-.69-.992-.538-1.145-.384-1.223-.077h-1.069zm10.844 22.19-1.146-.307-1.069-.614-.992-.769-.993-.921-.916-1.075-5.27-6.373-.229-.306-.229-.153-.153-.154-.152-.076h-.229l-.152.307v7.679l.152.69.306.538.534.384.688.23.764.23v.076h-7.789v-.076l.687-.23.535-.23.534-.308.306-.537.152-.691.077-2.994.076-3.148v-8.062l-.076-2.227-.077-2.073-.152-.691-.306-.461-.458-.307-.534-.153-.917-.154v-.078l1.451-.077h1.68l1.833-.076 1.604-.077h1.298l1.451.077 1.375.153 1.222.307 1.146.461.992.614.761.767.611.998.382 1.306.153 1.459-.153 1.382-.458 1.229-.688.998-.84.845-1.146.768-1.299.538-1.374.384-.076.076h-.077v.077l.077.077.076.153 4.047 5.145.917 1.229 1.069 1.151 1.069 1.075 1.068.921 1.069.538.993.23v.153l-.535.153-.687.077-.611.076zm-55.063 39.159v-.153l.916-.154.535-.153.458-.307.306-.461.152-.691.076-2.073.077-2.457.076-2.61v-4.914l-.076-2.38-.077-2.227-.076-1.996-.152-.691-.306-.461-.458-.307-.535-.154-.916-.153v-.153h15.503l.076 1.306.077 1.612.076 1.459h-.153l-.152-.614-.229-.691-.305-.614-.306-.537-.459-.385-.61-.232-1.681-.077h-3.818l-2.062.077-.458.153-.077.153-.076.23v8.139l.153.308.152.076h6.491l.688-.076.534-.384.306-.461.229-.691.076-.768h.152v6.449h-.152l-.076-.69-.153-.614-.228-.614-.306-.461-.458-.307-.611-.154h-6.491l-.152.077-.077.077-.076.153v8.983l.229.23.229.076h.153l1.451.077 1.527.077h2.749l1.451-.077 1.298-.077.535-.153.458-.384.382-.537.458-1.383.229-.614h.076v1.459l-.076 1.536-.153 1.382h-16.343zm82.939 0v-.153l.916-.154.534-.153.459-.307.305-.461.153-.691.076-2.688.076-2.917v-3.071l-1.374-2.688-.841-1.689-.916-1.689-.84-1.535-.917-1.459-.992-1.151-.993-.922-1.146-.614-1.299-.23v-.153l.993-.153.917-.077 1.527.153 1.222.308 1.069.614.916.845.764.998.688 1.229.764 1.382 2.749 5.145.764-1.151.841-1.383.916-1.458.916-1.536.841-1.459.688-1.229.229-.537-.152-.461-.229-.307-.534-.23-.611-.154-.688-.153v-.153h5.881v.153l-.84.153-.764.385-.611.768-5.575 9.061-.306.614-.229.537v3.532l.076 2.841.076 2.533.153.691.305.461.459.307.534.153.916.154v.153h-7.866zm40.094-21.96-1.527.538-1.298.921-1.146 1.152-.917 1.458-.688 1.689-.382 1.996-.152 2.15.076 1.689.229 1.688.458 1.612.611 1.536.764 1.382.992 1.229 1.069.998 1.375.769 1.451.46 1.68.154 1.681-.154 1.527-.46 1.298-.691 1.146-.922.917-1.151.687-1.306.535-1.612.306-1.688.076-1.843-.076-1.767-.306-1.766-.458-1.689-.611-1.535-.84-1.383-.993-1.229-1.222-.998-1.375-.768-1.527-.461-1.68-.153zm.153 22.19-1.986-.538-1.756-.844-1.604-1.152-1.374-1.382-1.069-1.612-.84-1.767-.535-1.996-.152-2.149.152-2.15.535-1.996.764-1.843 1.069-1.689 1.374-1.382 1.604-1.151 1.833-.845 2.063-.614 2.215-.153 2.062.153 1.909.537 1.757.922 1.604 1.074 1.375 1.459 1.146 1.612.84 1.843.535 1.997.152 2.149-.152 2.073-.459 1.92-.84 1.766-.993 1.689-1.374 1.382-1.604 1.229-1.833.845-2.063.537-2.291.23zm-71.178.307-1.298-4.376-1.375-4.607-1.374-4.453-1.375-4.3-1.451 4.377-1.375 4.529-1.298 4.53-1.299 4.3h-.076l-.764-2.303-.764-2.381-.84-2.457-.84-2.533-1.681-4.761-.84-2.15-.688-1.919-.688-1.689-.534-1.382-.306-.614-.458-.384-.458-.154-.917-.153v-.153h7.179v.153l-.458.077-.534.076-.459.23-.305.308-.153.537.153.691.916 2.841 1.069 2.994 2.139 6.143.992 2.918 2.673-8.677 2.75-8.676h.076l2.597 8.753 1.451 4.377 1.527 4.223 1.298-3.763 1.375-3.839 1.298-3.762 1.146-3.686.076-.614-.076-.385-.306-.307-.382-.23-.534-.077-.916-.153v-.153h5.956v.153l-.687.077-.535.23-.458.307-.458.614-.382.922-.459 1.229-.61 1.612-.688 1.843-.764 2.149-.764 2.227-1.68 4.761-1.528 4.761-.687 2.149zm-70.413.077-16.038-20.731v10.826l.077 2.534v2.38l.076 2.15.152.768.458.537.688.385.917.229 1.069.154v.153h-7.408v-.153l.764-.23.688-.23.61-.308.382-.537.153-.768.076-2.841.076-3.071v-6.296l-.076-1.767v-1.689l-.076-1.535-.076-1.228-.153-.845-.382-.614-.458-.384-.611-.308-.535-.153h-.535v-.23l2.139-.153 1.222.077.993.384.916.537.917.768.916.999 1.069 1.305 10.463 13.206v-10.904l-.076-1.612v-1.689l-.153-.845-.534-.614-.764-.384-1.222-.23v-.153h6.567v.153l-.84.23-.611.23-.534.384-.306.537-.152.691v2.15l-.077 2.61v5.375l.077 2.687.076 2.841.076 2.765.152 2.457zm178.478-22.266-.459.23-.152.307-.076.538v8.829l.076.461.306.23.534.153h.84l1.069-.076.993-.23 1.069-.461.916-.537.764-.769.611-.921.382-1.151.152-1.306-.152-1.459-.382-1.306-.534-.998-.841-.69-.916-.538-1.146-.384-1.299-.076h-1.068zm10.921 22.266-1.146-.384-1.069-.614-.993-.768-.916-.922-.993-1.075-5.27-6.372-.306-.23-.152-.23-.153-.153-.152-.077h-.229l-.076.153-.076.077-.076.23v7.524l.152.768.306.537.611.385.687.229.764.154v.153h-7.789v-.153l.688-.154.534-.229.534-.308.306-.537.153-.691.076-2.994.076-3.226v-5.682l-.076-2.38v-2.227l-.076-1.996-.153-.691-.306-.461-.458-.307-.534-.154-.535-.076-.382-.077v-.153l1.375-.077h1.604l1.757-.076h2.826l1.527.076 1.45.154 1.375.307 1.146.461.993.614.764.845.61.998.382 1.229.153 1.535-.153 1.306-.382 1.151-.687.998-.841.845-1.146.691-1.222.537-1.451.461-.152.077h-.076v.23l.076.153 4.048 5.145.84.998 1.833 1.996.916.845.917.69.916.461.764.153v.077l-.534.23-1.223.153zm40.399.537-1.68-.153-1.527-.384-1.299-.614-1.222-.845-1.146-.998-1.069-1.151-6.645-7.371-.152-.154h-.153l-.076.154v3.455l.076 1.843.077 1.688.076 1.459.152.691.306.461.458.307.535.153.916.154v.153h-7.866v-.153l.382-.077.535-.077.534-.153.458-.307.306-.461.152-.691.077-2.073v-2.457l.076-2.61v-4.914l-.076-2.38v-2.227l-.077-1.996-.152-.691-.306-.461-.458-.307-.534-.154-.535-.076-.382-.077v-.153h7.866v.153l-.916.153-.535.154-.458.307-.306.461-.152.691-.076 1.996-.077 2.304-.076 2.457v2.303l2.826-2.688 2.749-2.917 2.521-2.841.458-.538.306-.537.076-.384-.152-.461-.382-.23-.611-.153-.764-.077v-.153h5.881v.153l-.841.23-.764.537-.764.614-.764.769-7.331 8.062 3.284 3.839.687.769.841.921 1.068 1.152 1.146 1.229 1.222 1.229 1.298 1.151 1.299.998 1.298.845 1.222.537 1.069.23v.153l-.61.154-.688.076h-.611z"/>
	</symbol>
	<symbol id="billabong" viewBox="0 0 85.772 46.564">
		<path d="M51.391 0h28.791l5.59.008v9.946c-.92.153-2.221.383-3.217.689-1.761.688-7.121 1.607-7.121-1.455 0-3.063 4.518-2.527 4.518-2.527s-.459-.766-2.373-1.148c-1.839-.383-5.132-.842-9.802 2.757-4.748 3.599-7.812 3.369-7.812 3.369s-2.604.229-2.604-2.45c0-2.604 4.594-2.297 4.594-2.297s-2.22-1.532-4.361-1.532c-2.068 0-4.136.688-6.738 2.144-1.607.842-3.676 1.532-5.055 1.837V.004L51.391 0zm34.38 20.214v1.532l-.021 5.59H45.824l-.022-5.59v-2.067c1.379-.383 3.446-.995 5.055-1.914 2.604-1.455 4.67-2.145 6.738-2.145 2.143 0 4.362 1.531 4.362 1.531s-4.594-.308-4.594 2.374c0 2.603 2.604 2.374 2.604 2.374s3.062.229 7.811-3.369c4.67-3.599 7.963-3.139 9.801-2.756 1.914.383 2.373 1.147 2.373 1.147s-4.518-.536-4.518 2.604c0 3.062 5.36 2.066 7.121 1.455.997-.383 2.297-.612 3.216-.766zM37.802 37.574h.33c.786 0 1.373-.143 1.759-.426s.581-.707.581-1.273c0-.545-.186-.951-.551-1.211-.364-.26-.935-.389-1.71-.389h-.409v3.299zm45.03 6.293h2.697v2.697h-2.697v-2.697zM33.69 32.324h-.978L20.931 45.086h-.974V32.324H18.77v12.762h-5.213V32.324H12.37v13.99h14.389v-1.229h-4.226l2.242-2.367h7.688l-.048 3.597h1.273V32.324h.002zm-7.774 9.324l6.722-7.761-.146 7.761h-6.576zm-14.591-9.324h-1.169v13.99h1.169v-13.99zM0 32.324v13.99h3.646c1.954 0 2.408 0 2.982-.099 2.269-.416 2.878-2.358 2.878-3.864 0-1.902-.941-3.132-2.477-3.527a.303.303 0 0 1-.14-.041c.035 0 .069 0 .104-.021.785-.157 2.094-.909 2.094-2.952 0-1.05-.366-1.961-.96-2.558-.906-.91-2.093-.93-3.034-.93L0 32.324zm1.169 1.187h3.664c.872 0 1.728 0 2.338.535.418.357.716.951.716 1.744 0 .812-.297 1.447-.698 1.824-.665.636-1.624.636-2.566.636H1.169v-4.739zm0 5.887h3.402c.681.02 1.291.02 1.832.199.245.059 1.937.612 1.937 2.812 0 1.705-.977 2.598-2.547 2.676-.296.021-.68.021-1.5.021H1.169v-5.708zm82.638-.865c0 .055.004.137.012.246.006.108.01.19.01.246 0 .625-.059 1.209-.172 1.744a6.385 6.385 0 0 1-.518 1.516c-.688 1.365-1.621 2.42-2.808 3.164-1.184.744-2.521 1.115-4.014 1.115-1.102 0-2.119-.211-3.051-.631-.937-.421-1.775-1.041-2.521-1.871a7.248 7.248 0 0 1-1.42-2.357 7.385 7.385 0 0 1-.248-.799v5.369h-2.643l-6.068-9.58v9.58H57.57v-5.09a6.837 6.837 0 0 1-.221.647 7.12 7.12 0 0 1-1.574 2.433 7.25 7.25 0 0 1-2.447 1.704 7.349 7.349 0 0 1-2.914.595c-1.086 0-2.086-.193-3-.58a7.054 7.054 0 0 1-2.43-1.719 7.566 7.566 0 0 1-1.086-1.464 4.629 4.629 0 0 1-.289.947 4.014 4.014 0 0 1-1.05 1.484 4.09 4.09 0 0 1-1.499.803c-.554.16-1.338.238-2.349.238H35.06v-14.56h3.13c.635 0 1.137.023 1.512.074.372.053.703.137.99.256.799.324 1.413.797 1.84 1.41.427.611.638 1.328.638 2.15 0 .68-.127 1.26-.379 1.737-.255.48-.627.847-1.119 1.093a3.07 3.07 0 0 1 1.245.7l-.001-.172c0-.799.106-1.553.321-2.264a7.203 7.203 0 0 1 .949-1.996 7.449 7.449 0 0 1 2.709-2.424c1.086-.57 2.272-.857 3.561-.857.967 0 1.898.188 2.795.562a7.43 7.43 0 0 1 2.406 1.61 7.593 7.593 0 0 1 1.66 2.449c.096.234.182.472.254.709v-5.039h2.699l6.021 9.302v-9.302h2.789v5.306c.09-.341.207-.675.349-1a7.855 7.855 0 0 1 1.729-2.486 7.115 7.115 0 0 1 2.402-1.59c.885-.346 1.862-.521 2.936-.521 1.566 0 2.922.384 4.062 1.15 1.139.766 2.016 1.885 2.637 3.359h-3.461a4.084 4.084 0 0 0-1.484-1.187c-.569-.262-1.207-.395-1.914-.395-1.246 0-2.301.448-3.168 1.352-.866.896-1.301 1.992-1.301 3.279 0 1.307.438 2.41 1.314 3.307.877.898 1.957 1.346 3.235 1.346.888 0 1.693-.237 2.416-.721a4.294 4.294 0 0 0 1.604-1.94h-5.721v-2.441l9.092.004zm-37.903.332c0 .629.104 1.211.311 1.75.205.539.515 1.035.921 1.482.446.483.954.858 1.521 1.122a4.135 4.135 0 0 0 1.758.396c1.277 0 2.347-.455 3.209-1.363.863-.903 1.293-2.033 1.293-3.389 0-1.242-.434-2.301-1.305-3.178-.869-.877-1.914-1.314-3.137-1.314-1.271 0-2.353.438-3.238 1.312-.887.876-1.333 1.936-1.333 3.182zm-8.102 4.85h.859c.867 0 1.502-.146 1.908-.436.406-.291.611-.738.611-1.346 0-.658-.212-1.16-.64-1.502-.426-.339-1.055-.509-1.88-.509h-.859v3.793h.001z"/>
	</symbol>
	<symbol id="calvin-klein" viewBox="0 0 192.756 192.756">
		<g fill-rule="evenodd" clip-rule="evenodd"><path fill="#fff" d="M0 0h192.756v192.756H0V0z"/><path d="M17.897 108.844c-6.549 0-12.139-5.94-12.139-12.419 0-6.455 5.473-12.513 12.092-12.513 4.351 0 7.484 2.105 10.034 5.403h3.204c-.959-1.731-1.988-3.321-3.555-4.561-2.69-2.175-6.175-3.461-9.636-3.461-8.303 0-15.062 6.853-15.062 15.109 0 8.279 6.853 15.062 15.109 15.062 3.368 0 6.666-1.239 9.309-3.321 1.661-1.333 2.83-3.064 3.953-4.842h-3.204c-2.527 3.298-5.754 5.543-10.105 5.543zM51.109 93.057c-2.011-2.596-4.748-4.233-8.139-4.233-6.081 0-11.086 4.936-11.086 11.017 0 6.08 5.029 11.062 11.086 11.062 3.532 0 5.987-1.474 8.139-4.187v3.695h2.643V89.338h-2.643v3.719zM42.83 108.47c-4.655 0-8.327-4.046-8.327-8.606 0-4.538 3.649-8.607 8.327-8.607 4.654 0 8.279 4.07 8.279 8.607 0 4.56-3.649 8.606-8.279 8.606zM56.956 110.411h2.831V81.9h-2.831v28.511zM70.475 107.066l-7.157-17.728h-2.807l8.584 21.073h2.853l8.561-21.073h-2.76l-7.274 17.728zM81.678 110.411h2.83V89.338h-2.83v21.073zM81.678 86.625h2.83V81.9h-2.83v4.725zM96.694 88.823c-2.667 0-4.561 1.404-6.315 3.275v-2.76h-2.62v21.073h2.783V97.57c-.023-3.391 2.783-6.314 6.198-6.314 4.279 0 6.431 3.719 6.431 7.555v11.601h2.619V98.811c.001-5.473-3.202-9.988-9.096-9.988zM132.057 81.9l-12.864 16.349V81.9h-2.783v28.511h2.783v-7.835l3.649-4.537 9.285 12.372h3.533l-11.041-14.618L135.66 81.9h-3.603zM136.688 110.411h2.761V81.9h-2.761v28.511zM162.299 94.647c-1.918-3.579-5.754-5.824-9.801-5.824-6.033 0-11.133 5.029-11.133 11.063 0 6.08 5.146 11.016 11.182 11.016 2.875 0 5.707-1.146 7.787-3.134 1.264-1.193 2.012-2.69 2.689-4.257h-2.969c-1.498 2.924-4.141 4.958-7.557 4.958-2.08 0-4.115-.842-5.658-2.269-1.592-1.449-2.293-3.228-2.598-5.332h19.438c.001-2.198-.304-4.303-1.38-6.221zm-17.963 3.789c.844-3.952 3.953-7.18 8.211-7.18 3.578 0 7.414 2.199 8.256 7.18h-16.467zM165.738 110.411h2.782V89.338h-2.782v21.073zM165.738 86.719h2.782V81.9h-2.782v4.819zM180.754 88.823c-2.715 0-4.609 1.404-6.387 3.275v-2.76h-2.666v21.073h2.807V97.57c-.023-3.414 2.854-6.314 6.291-6.314 4.258 0 6.504 3.719 6.504 7.555v11.601h2.619V98.811c0-5.473-3.252-9.988-9.168-9.988z"/></g>
	</symbol>
	<symbol id="converse" viewBox="0 0 126.58 77.938">
		<path d="M124.584 65.419h.396c.203 0 .424.039.424.295 0 .304-.242.317-.506.317h-.313v-.612zm-.299 1.683h.299v-.829h.317l.523.829h.321l-.552-.851c.287-.03.508-.177.508-.523 0-.371-.215-.552-.674-.552h-.744l.002 1.926zm-.72-.97c0-.788.59-1.396 1.361-1.396.762 0 1.354.608 1.354 1.396 0 .807-.592 1.415-1.354 1.415-.771 0-1.361-.609-1.361-1.415zm-.298 0c0 .947.758 1.657 1.66 1.657.899 0 1.653-.71 1.653-1.657 0-.93-.754-1.639-1.653-1.639-.903 0-1.66.709-1.66 1.639zm-18.455-2.449v2.754h-6.898v3.11h4.739a2.916 2.916 0 0 1 2.916 2.916v2.56a2.916 2.916 0 0 1-2.916 2.916h-8.014v-2.754h7.916V72.301H97.817a2.916 2.916 0 0 1-2.916-2.915v-2.787a2.917 2.917 0 0 1 2.916-2.916h6.995zm15.809 14.255h-6.995a2.917 2.917 0 0 1-2.916-2.916v-8.424a2.918 2.918 0 0 1 2.916-2.916h6.995v2.754h-6.897v3.175h6.897v2.755h-6.897v2.818h6.897v2.754zm-47.237 0h-6.996a2.917 2.917 0 0 1-2.916-2.916v-8.424a2.917 2.917 0 0 1 2.916-2.916h6.996v2.754h-6.898v3.175h6.898v2.755h-6.898v2.818h6.898v2.754zm-40.24-14.255H39.786a2.917 2.917 0 0 1 2.916 2.916v11.34h-3.013V66.437h-5.021v11.502h-3.013V63.683h1.489zm48.664 5.928h5.342V66.436h-5.342v3.175zm8.355-2.622V69.45a2.917 2.917 0 0 1-2.562 2.896l2.826 5.594h-3.393l-2.465-5.572h-2.762v5.572h-3.014V63.683h8.452a2.917 2.917 0 0 1 2.916 2.916l.002.39zm-40.56-3.306l3.369 11.858 3.564-11.858h3.434l-4.6 14.255h-4.73l-4.406-14.256 3.369.001zM0 66.599a2.917 2.917 0 0 1 2.916-2.916H10.4v2.754H3.013v8.748H10.4v2.754H2.916A2.917 2.917 0 0 1 0 75.022v-8.423zm15 0a2.917 2.917 0 0 1 2.916-2.916h6.22a2.917 2.917 0 0 1 2.917 2.916v8.424a2.917 2.917 0 0 1-2.917 2.916h-6.22A2.917 2.917 0 0 1 15 75.023v-8.424zm3.014-.162h6.026v8.748h-6.026v-8.748zM61.281 10.53l3.875 11.927h12.541l-10.145 7.369 3.875 11.927-10.146-7.371-10.145 7.371 3.875-11.927-10.145-7.369h12.539l3.876-11.927zm23.376 16.847c0 12.91-10.467 23.376-23.376 23.376S37.905 40.287 37.905 27.377 48.371 4 61.281 4s23.376 10.467 23.376 23.377zM61.281 0c-15.12 0-27.376 12.257-27.376 27.377 0 15.119 12.257 27.376 27.376 27.376s27.376-12.257 27.376-27.376C88.657 12.257 76.401 0 61.281 0z"/>
	</symbol>
	<symbol id="gucci" viewBox="0 0 192.756 192.756">
		<g fill-rule="evenodd" clip-rule="evenodd"><path fill="#fff" d="M0 0h192.756v192.756H0V0z"/><path d="M170.855 84.725h5.643c-.625.485-1 1.079-1 1.892v19.431c0 .812.391 1.391 1 1.875h-5.643c.609-.484.984-1.078.984-1.875V86.616c.001-.813-.359-1.407-.984-1.891zM40.065 93.072c-.922-1.985-1.938-3.939-3.642-5.361-1.813-1.532-4.112-2.454-6.488-2.454-6.315 0-9.145 5.705-9.145 11.317 0 5.425 2.705 10.911 8.801 10.911 2.485 0 4.909-1.078 6.44-3.033v-4.377c0-1.188-.391-1.953-1.313-2.656h6.456c-.688.781-1.109 1.578-1.109 2.656v4.377c-2.955 2.752-6.628 4.439-10.708 4.439-7.206 0-13.1-5.299-13.1-12.677 0-7.331 5.815-12.349 12.928-12.349 4.424 0 8.003 1.626 10.88 4.893v4.314zM55.884 84.725h6.081c-.829.609-1.11 1.297-1.11 2.313v14.179c0 3.891 4.564 5.799 7.91 5.799 3.283 0 7.566-1.922 7.566-5.721V87.038c0-.954-.235-1.61-.875-2.313h3.314c-.672.688-.922 1.375-.922 2.313v14.257c0 5.127-6.049 7.096-10.239 7.096-4.314 0-10.614-1.906-10.614-7.174V87.038c-.001-.969-.392-1.688-1.111-2.313zM116.785 93.15c-.812-2.048-1.766-3.845-3.439-5.33-1.797-1.595-3.986-2.595-6.408-2.595-6.252 0-9.457 5.471-9.457 11.146 0 5.705 3.33 11.098 9.504 11.098 4.596 0 7.879-3.236 9.801-7.129v4.221c-2.859 2.83-6.549 4.268-10.582 4.268-7.473 0-13.069-4.83-13.069-12.536 0-7.487 5.377-12.411 12.709-12.411 4.064 0 8.002 1.407 10.941 4.205v5.063zM155.99 93.15c-.812-2.048-1.768-3.845-3.439-5.33-1.797-1.595-3.986-2.595-6.408-2.595-6.254 0-9.443 5.471-9.443 11.146 0 5.705 3.314 11.098 9.49 11.098 4.596 0 7.893-3.236 9.801-7.129v4.221c-2.861 2.83-6.535 4.268-10.582 4.268-7.473 0-13.068-4.83-13.068-12.536 0-7.487 5.377-12.411 12.707-12.411 4.064 0 8.004 1.407 10.943 4.205v5.063h-.001z"/></g>
	</symbol>
	<symbol id="levi's" viewBox="0 0 192.756 192.756">
		<g fill-rule="evenodd" clip-rule="evenodd"><path fill="#fff" d="M0 0h192.756v192.756H0V0z"/><path d="M2.834 55.107l17.916 78.505c17.987-10.378 55.043-14.017 75.65.05 20.613-14.037 57.629-10.422 75.605-.05l17.916-78.505H2.834z"/><path fill="#fff" d="M26.074 74.219v29.505h20.654v-6.927H35.952V74.219h-9.878zM78.206 74.267h11.005l7.423 19.819 7.167-19.819h10.877l-12.412 29.409H90.747L78.206 74.267zM117.424 74.239v29.465h9.867V74.239h-9.867zM63.406 73.73c-9.034 0-15.441 1.729-15.441 15.434 0 11.271 2.755 15.947 15.825 15.947 13.967 0 14.224-6.597 14.608-9.735h-9.867c0 2.498-2.499 3.586-5.062 3.586-.769 0-5.446.641-5.446-6.917h20.374c.128-1.089.003-5.255-.064-5.892-.703-6.659-1.344-12.487-14.927-12.423zM153.467 73.764c8.059 0 13.176 3.003 13.814 9.52h-10.232c0-1.405-1.023-4.025-3.967-4.025-2.941 0-4.541.958-4.541 3.13 0 2.3 1.344 2.875 2.367 3.131.512.128 6.652 1.022 8.697 1.278 1.523.19 7.803.511 7.676 6.9-.129 6.39-4.094 10.351-14.07 10.351-9.979 0-14.711-3.45-14.711-9.072h10.234c.062 1.98 1.15 3.45 4.348 3.45 3.199 0 4.861-1.402 4.861-3.578 0-1.662-1.471-2.556-3.07-2.684-1.051-.084-7.738-.128-10.936-1.534-2.852-1.253-6.119-3.184-5.564-8.051.639-5.621 4.732-8.816 15.094-8.816zM138.045 74.732c.023 2.242-.168 3.715-3.18 5.381.193-.435.785-1.346.689-1.958a4.406 4.406 0 0 1-1.588.292c-2.252 0-4.076-1.663-4.076-3.714s1.824-3.714 4.076-3.714c2.255-.001 4.079 1.662 4.079 3.713z"/><path d="M58.213 85.826h10.579c.064-4.039-1.475-6.218-5.386-6.218-3.526 0-5.193 2.244-5.193 6.218zM165.516 134.346a1.867 1.867 0 0 0-1.369-.563c-.531 0-.986.188-1.361.563a1.86 1.86 0 0 0-.566 1.363c0 .537.188.994.561 1.371.377.379.832.569 1.367.569s.992-.19 1.369-.569.564-.836.564-1.371a1.857 1.857 0 0 0-.565-1.363zm-.194 2.548c-.322.326-.715.489-1.176.489s-.854-.163-1.178-.489a1.63 1.63 0 0 1-.48-1.185c0-.46.16-.852.484-1.177.324-.326.715-.489 1.174-.489s.852.163 1.176.489c.324.325.484.717.484 1.177.001.463-.16.858-.484 1.185z"/><path d="M165.008 136.738c-.01-.018-.016-.055-.02-.11s-.006-.108-.006-.158v-.155a.574.574 0 0 0-.115-.329.514.514 0 0 0-.365-.208.793.793 0 0 0 .307-.103c.139-.089.209-.229.209-.418 0-.267-.109-.446-.328-.538-.123-.05-.316-.076-.58-.076h-.742v2.122h.373v-.837h.295c.199 0 .338.023.416.068.135.079.201.241.201.487v.168l.008.068.004.023a.288.288 0 0 0 .006.021h.35l-.013-.025zm-.574-1.119a1 1 0 0 1-.355.048h-.338v-.769h.318c.207 0 .357.026.453.079.094.053.141.156.141.311-.001.163-.075.274-.219.331z"/></g>
	</symbol>
	<symbol id="mango" viewBox="-0.54663753 -0.54663753 110.65047506 19.31452606">
		<path d="M109.557 9.181C109.557 4.011 104.863 0 99.1 0c-5.582 0-10.485 3.826-10.485 8.901 0 4.788 3.851 8.623 9.038 9.233v-2.898c-3.393-.559-5.958-3.094-5.958-6.144 0-3.458 3.297-6.266 7.365-6.266s7.366 2.808 7.366 6.266c0 3.027-2.524 5.545-5.879 6.13v2.903c4.979-.605 9.01-4.298 9.01-8.944M76.328 15.41c-3.2 0-5.925-1.732-6.94-4.159h-3.276c1.084 4.181 5.341 6.97 10.398 6.97 1.173 0 2.525-.115 3.646-.395 2.532-.626 5.296-2.271 5.296-4.867V8.35h-9.156l-.01 2.901h6.238v1.317c0 1.455-2.172 2.297-3.503 2.592-.715.159-1.635.25-2.374.25h-.319m6.203-10.104C81.142 3.865 79 2.942 76.598 2.942c-3.832 0-7 2.354-7.506 5.408h-3.21C66.301 3.61 71.151.116 76.638.116c3.265 0 6.195 1.215 8.17 3.17l-2.277 2.02M48.083.497h-2.966v17.337h2.916V4.879l11.951 12.955h2.172v-2.108L48.083.497m14.073 0h-2.917v8.42l2.917 2.927V.498m-25.613 11.96l2.69 5.376h3.507L33.942.498h-3.161l-.002.005 4.405 9.193h-5.853L30.86 6.7l-1.593-3.258-7.413 14.392h3.277l2.773-5.374 8.64-.001M2.94.498H0v17.336h2.915V5.915l6.619 10.583 1.686-2.7L2.941.498m8.157 8.136l1.678 2.661 3.375-5.38v11.918h2.908V.498h-2.967l-4.994 8.136"/>
	</symbol>
	<symbol id="nike" viewBox="0 0 192.756 192.756">
		<g fill-rule="evenodd" clip-rule="evenodd"><path fill="#fff" d="M0 0h192.756v192.756H0V0z"/><path d="M42.741 71.477c-9.881 11.604-19.355 25.994-19.45 36.75-.037 4.047 1.255 7.58 4.354 10.256 4.46 3.854 9.374 5.213 14.264 5.221 7.146.01 14.242-2.873 19.798-5.096 9.357-3.742 112.79-48.659 112.79-48.659.998-.5.811-1.123-.438-.812-.504.126-112.603 30.505-112.603 30.505a24.771 24.771 0 0 1-6.524.934c-8.615.051-16.281-4.731-16.219-14.808.024-3.943 1.231-8.698 4.028-14.291z"/></g>
	<symbol id="puma" viewBox="35.433 30.331 889.299 446.538">
		<g><path d="m512.857 36.99c-2.898.447-5.684 11.118-11.285 16.677-4.096 4.012-9.209 3.761-11.925 8.721-1.031 1.853-.697 5.016-1.867 8.053-2.285 6.074-10.337 6.617-10.337 13.235-.028 7.147 6.715 8.512 12.552 13.583 4.556 4.082 5.002 6.896 10.518 8.874 4.71 1.603 11.717-3.636 18.028-1.755 5.183 1.547 10.142 2.661 11.313 7.983 1.03 4.904-.07 12.51-6.353 11.633-2.118-.237-11.299-3.33-22.583-2.132-13.612 1.547-29.146 5.99-30.664 21.163-.836 8.484 9.654 18.487 19.783 16.453 7.007-1.38 3.692-9.64 7.509-13.653 5.001-5.14 33.338 17.944 59.683 17.944 11.09 0 19.337-2.8 27.53-11.382.765-.655 1.699-2.062 2.883-2.146 1.115.084 3.065 1.184 3.706 1.658 21.218 17.052 37.253 51.255 115.229 51.659 10.964.055 23.46 5.294 33.658 14.6 9.098 8.415 14.42 21.496 19.588 34.773 7.802 19.923 21.79 39.302 42.993 60.868 1.157 1.156 18.613 14.726 20.006 15.743.223.139 1.505 3.204 1.06 4.917-.516 12.929-2.397 50.53 25.633 52.23 6.855.348 5.057-4.472 5.057-7.788-.013-6.548-1.212-13.054 2.244-19.755 4.722-9.222-10.017-13.472-9.585-33.408.306-14.865-12.177-12.33-18.516-23.656-3.65-6.562-6.896-10.044-6.659-18.07 1.421-45.165-9.613-74.84-15.116-82.126-4.29-5.503-7.843-7.69-3.915-10.24 23.392-15.45 28.7-29.828 28.7-29.828 12.44-29.242 23.628-55.95 39.05-67.707 3.107-2.425 11.076-8.373 15.966-10.714 14.391-6.785 21.97-10.894 26.15-14.963 6.617-6.45 11.841-19.894 5.502-28.044-7.885-10.059-21.524-2.076-27.542 1.49-43.007 25.524-49.346 70.55-64.24 96.408-11.883 20.66-31.206 35.832-48.481 37.072-12.957.961-26.916-1.658-40.82-7.76-33.812-14.823-52.314-33.965-56.674-37.35-9.084-7.008-79.606-76.235-136.74-79.063 0 0-7.09-14.196-8.874-14.433-4.18-.53-8.456 8.484-11.521 9.53-2.884.96-7.732-9.767-10.644-9.293m-251.522 413.171c-5.378-.126-9.947-4.542-9.947-10.003l.014-178.214h-58.736v196.45c0 9.627 7.801 17.485 17.372 17.485h102.663c9.64 0 17.345-7.858 17.345-17.485v-196.45h-58.68l-.056 178.214c0 5.461-4.57 9.877-9.975 10.003m196.659-188.217h-88.898c-10.518 0-19.086 8.554-19.086 19.184v194.75h58.79v-178.644c.042-5.475 4.472-9.808 9.934-9.808 5.489 0 9.891 4.235 10.016 9.655v178.798h58.555v-178.8c.07-5.419 4.472-9.654 9.947-9.654 5.434 0 9.92 4.333 9.962 9.808v178.646h58.791v-194.751c0-10.63-8.582-19.184-19.1-19.184zm-343.931 35.665c.042-5.949-4.806-10.184-9.947-10.184h-9.975v108.207h9.975c5.183 0 9.99-4.124 9.947-10.044zm39.413 124.507h-59.335v53.763h-58.708v-213.935h118.42c10.601 0 18.876 8.61 18.876 19.268v121.637c0 10.672-8.595 19.267-19.253 19.267m613.996 5.921c-11.8 0-21.706 10.198-21.706 22.556 0 12.399 9.906 22.513 22.082 22.513 12.079 0 21.859-10.114 21.859-22.513 0-12.386-9.78-22.556-21.86-22.556zm26.442 22.486c0 14.53-11.647 26.345-26.066 26.345-14.573 0-26.275-11.73-26.275-26.345 0-14.336 11.702-26.317 25.843-26.317 14.851 0 26.498 11.62 26.498 26.317"/><path d="m765.131 448.852c4.082 0 6.228-1.449 6.228-4.346 0-2.578-2.076-3.901-6.047-3.901h-1.17v8.247zm15.033 16.913h-7.008l-9.014-11.995v11.995h-5.726v-30.329h6.019c8.178 0 12.524 3.093 12.524 9 0 3.942-2.563 7.44-6.144 8.484l-.418.154zm-115.591-70.09v-98.51c-.14-5.448-4.528-9.627-10.003-9.627-5.42 0-9.906 4.346-9.947 9.78v98.357zm0 80.205v-53.707h-19.95v53.707h-58.68v-194.751c0-10.63 8.567-19.184 19.086-19.184h99.137c10.547 0 19.115 8.554 19.115 19.184v194.75z"/></g>
	</symbol>
	<symbol id="zara" viewBox="0 0 2500 583">
		<g><path d="M508.9,501.4c0,39.3-32.8,71.2-57.5,71.2H172.1L523.4,11.4H53.7v93h24.1c0-39.3,25.4-71.1,50.2-71.1h241.3L15.9,594.4h509.6
		l0-93H508.9"/>
		<path d="M1118.4,549L846.6,11.4l-249.1,538c-4.4,11.8-28.4,26.7-62.4,26.7v18.2h132.6v-18.2c-24.6,0-51-12.2-44.6-26.8L683,419.4
		h229.8L978.1,549c7.4,13.1-25.7,27.2-59.8,27.2v18.2h276l0.1-18.2C1152.6,576.1,1127.1,563.1,1118.4,549z M693,398.4l99.4-218.2
		l111,218.2H693z"/>
		<path d="M1226,33.9c40.4,0,73.8,10.4,73.8,23c0,100-0.2,491.5,0,491.5c0,13.4-32.9,28.3-73.4,28.3l-0.1,17.6h270.2v-16.4
		c-40.1,0-72.6-16-72.6-29.4V29h77.9c75,0,135.8,62.3,135.8,133c0,70.7-60.8,128.1-135.9,128.1h-53.9c0,0,182.6,276.5,182.9,276.5
		c7.2,10.5,10.8,27.8,10.8,27.8h196.9v-16.4c-37.9,0-57.7-15.7-68.7-29.5l-175.8-229.4c84.4-5.6,149.7-73.8,149.7-154.8
		c0-84.6-72.7-152.9-162.4-152.9H1226V33.9"/>
		<path d="M2440,549L2168.2,11.4l-249.1,538c-4.4,11.8-28.3,27.3-62.4,27.3v17.6h132.6v-16.4c-24.6,0-50.9-14-44.6-28.6l59.9-129.9
		h229.8l65.3,129.6c7.5,13.1-25.7,27.8-59.8,27.8h0v17.6h276l0.1-17C2474.2,577.4,2448.7,563.1,2440,549z M2014.5,398.4l99.4-218.2
		l111,218.2H2014.5z"/></g>
	</symbol>
	<symbol id="facebook" viewBox="0 0 24 24">
		<path d="m15.997 3.985h2.191v-3.816c-.378-.052-1.678-.169-3.192-.169-3.159 0-5.323 1.987-5.323 5.639v3.361h-3.486v4.266h3.486v10.734h4.274v-10.733h3.345l.531-4.266h-3.877v-2.939c.001-1.233.333-2.077 2.051-2.077z"/>
	</symbol>
	<symbol id="google" viewBox="0 0 96.828 96.827">
		<g>
		<path d="M62.617,0H39.525c-10.29,0-17.413,2.256-23.824,7.552c-5.042,4.35-8.051,10.672-8.051,16.912
		c0,9.614,7.33,19.831,20.913,19.831c1.306,0,2.752-0.134,4.028-0.253l-0.188,0.457c-0.546,1.308-1.063,2.542-1.063,4.468
		c0,3.75,1.809,6.063,3.558,8.298l0.22,0.283l-0.391,0.027c-5.609,0.384-16.049,1.1-23.675,5.787
		c-9.007,5.355-9.707,13.145-9.707,15.404c0,8.988,8.376,18.06,27.09,18.06c21.76,0,33.146-12.005,33.146-23.863
		c0.002-8.771-5.141-13.101-10.6-17.698l-4.605-3.582c-1.423-1.179-3.195-2.646-3.195-5.364c0-2.672,1.772-4.436,3.336-5.992
		l0.163-0.165c4.973-3.917,10.609-8.358,10.609-17.964c0-9.658-6.035-14.649-8.937-17.048h7.663c0.094,0,0.188-0.026,0.266-0.077
		l6.601-4.15c0.188-0.119,0.276-0.348,0.214-0.562C63.037,0.147,62.839,0,62.617,0z M34.614,91.535
		c-13.264,0-22.176-6.195-22.176-15.416c0-6.021,3.645-10.396,10.824-12.997c5.749-1.935,13.17-2.031,13.244-2.031
		c1.257,0,1.889,0,2.893,0.126c9.281,6.605,13.743,10.073,13.743,16.678C53.141,86.309,46.041,91.535,34.614,91.535z
		M34.489,40.756c-11.132,0-15.752-14.633-15.752-22.468c0-3.984,0.906-7.042,2.77-9.351c2.023-2.531,5.487-4.166,8.825-4.166
		c10.221,0,15.873,13.738,15.873,23.233c0,1.498,0,6.055-3.148,9.22C40.94,39.337,37.497,40.756,34.489,40.756z"/>
		<path d="M94.982,45.223H82.814V33.098c0-0.276-0.225-0.5-0.5-0.5H77.08c-0.276,0-0.5,0.224-0.5,0.5v12.125H64.473
		c-0.276,0-0.5,0.224-0.5,0.5v5.304c0,0.275,0.224,0.5,0.5,0.5H76.58V63.73c0,0.275,0.224,0.5,0.5,0.5h5.234
		c0.275,0,0.5-0.225,0.5-0.5V51.525h12.168c0.276,0,0.5-0.223,0.5-0.5v-5.302C95.482,45.446,95.259,45.223,94.982,45.223z"/>
	</g>
	</symbol>
	<symbol id="instagram" viewBox="0 0 438.536 438.536">
		<path d="M421.981,16.562C410.941,5.519,397.711,0,382.298,0H56.248C40.83,0,27.604,5.521,16.561,16.562
		C5.52,27.6,0.001,40.828,0.001,56.243V382.29c0,15.413,5.518,28.644,16.56,39.683c11.043,11.04,24.272,16.563,39.687,16.563
		h326.046c15.41,0,28.644-5.523,39.684-16.563c11.043-11.039,16.557-24.27,16.557-39.683V56.243
		C438.534,40.825,433.021,27.604,421.981,16.562z M157.462,158.025c17.224-16.652,37.924-24.982,62.097-24.982
		c24.36,0,45.153,8.33,62.381,24.982c17.228,16.655,25.837,36.785,25.837,60.386c0,23.598-8.609,43.729-25.837,60.379
		c-17.228,16.659-38.014,24.988-62.381,24.988c-24.172,0-44.87-8.336-62.097-24.988c-17.228-16.652-25.841-36.781-25.841-60.379
		C131.621,194.81,140.234,174.681,157.462,158.025z M388.865,370.589c0,4.945-1.718,9.083-5.141,12.416
		c-3.433,3.33-7.519,4.996-12.282,4.996h-305.2c-4.948,0-9.091-1.666-12.419-4.996c-3.333-3.326-4.998-7.471-4.998-12.416V185.575
		H89.08c-3.805,11.993-5.708,24.462-5.708,37.402c0,36.553,13.322,67.715,39.969,93.511c26.65,25.786,58.721,38.685,96.217,38.685
		c24.744,0,47.583-5.903,68.527-17.703c20.937-11.807,37.486-27.839,49.676-48.112c12.183-20.272,18.274-42.4,18.274-66.38
		c0-12.94-1.91-25.406-5.715-37.402h38.547v185.014H388.865z M388.865,115.626c0,5.52-1.903,10.184-5.716,13.99
		c-3.805,3.809-8.466,5.711-13.989,5.711h-49.676c-5.517,0-10.185-1.903-13.99-5.711c-3.806-3.806-5.708-8.47-5.708-13.99V68.522
		c0-5.33,1.902-9.945,5.708-13.848c3.806-3.901,8.474-5.854,13.99-5.854h49.676c5.523,0,10.185,1.952,13.989,5.854
		c3.812,3.903,5.716,8.518,5.716,13.848V115.626z"/>
	</symbol>
	<symbol id="twitter" viewBox="0 0 512 512">
		<path d="M512,97.248c-19.04,8.352-39.328,13.888-60.48,16.576c21.76-12.992,38.368-33.408,46.176-58.016
		c-20.288,12.096-42.688,20.64-66.56,25.408C411.872,60.704,384.416,48,354.464,48c-58.112,0-104.896,47.168-104.896,104.992
		c0,8.32,0.704,16.32,2.432,23.936c-87.264-4.256-164.48-46.08-216.352-109.792c-9.056,15.712-14.368,33.696-14.368,53.056
		c0,36.352,18.72,68.576,46.624,87.232c-16.864-0.32-33.408-5.216-47.424-12.928c0,0.32,0,0.736,0,1.152
		c0,51.008,36.384,93.376,84.096,103.136c-8.544,2.336-17.856,3.456-27.52,3.456c-6.72,0-13.504-0.384-19.872-1.792
		c13.6,41.568,52.192,72.128,98.08,73.12c-35.712,27.936-81.056,44.768-130.144,44.768c-8.608,0-16.864-0.384-25.12-1.44
		C46.496,446.88,101.6,464,161.024,464c193.152,0,298.752-160,298.752-298.688c0-4.64-0.16-9.12-0.384-13.568
		C480.224,136.96,497.728,118.496,512,97.248z"/>
	</symbol>
	<symbol id="youtube" viewBox="-21 -117 682.66672 682">
		<path d="m626.8125 64.035156c-7.375-27.417968-28.992188-49.03125-56.40625-56.414062-50.082031-13.703125-250.414062-13.703125-250.414062-13.703125s-200.324219 0-250.40625 13.183593c-26.886719 7.375-49.03125 29.519532-56.40625 56.933594-13.179688 50.078125-13.179688 153.933594-13.179688 153.933594s0 104.378906 13.179688 153.933594c7.382812 27.414062 28.992187 49.027344 56.410156 56.410156 50.605468 13.707031 250.410156 13.707031 250.410156 13.707031s200.324219 0 250.40625-13.183593c27.417969-7.378907 49.03125-28.992188 56.414062-56.40625 13.175782-50.082032 13.175782-153.933594 13.175782-153.933594s.527344-104.382813-13.183594-154.460938zm-370.601562 249.878906v-191.890624l166.585937 95.945312zm0 0"/>
	</symbol>
	<symbol id="dribbble" viewBox="0 0 24 24">
		<path d="m16.354 23.17c.02-.006.039-.014.059-.021 12.215-4.853 8.836-23.149-4.413-23.149-6.649 0-12 5.42-12 12 0 8.327 8.434 14.269 16.354 11.17zm-11.073-3.111c.852-1.432 3.609-5.472 8.315-6.866.984 2.509 1.674 5.436 1.742 8.755-3.566 1.199-7.327.392-10.057-1.889zm11.532 1.263c-.131-3.189-.782-6.017-1.71-8.467 2.082-.325 4.492-.108 7.225.987-.581 3.261-2.666 6.002-5.515 7.48zm5.672-9.031c-3.01-1.131-5.663-1.272-7.959-.834-.355-.8-.728-1.569-1.123-2.277 3.523-1.407 5.605-3.122 6.537-4.03 1.645 1.904 2.622 4.369 2.545 7.141zm-3.61-8.209c-.848.807-2.845 2.437-6.26 3.77-1.674-2.648-3.464-4.516-4.598-5.562 3.628-1.494 7.812-.856 10.858 1.792zm-12.292-1.059c.856.753 2.735 2.561 4.548 5.357-2.49.802-5.612 1.391-9.409 1.474.604-2.894 2.408-5.346 4.861-6.831zm-5.051 8.337c4.25-.069 7.69-.74 10.409-1.648.376.659.733 1.377 1.076 2.123-4.735 1.508-7.694 5.401-8.827 7.159-1.828-2.04-2.836-4.702-2.658-7.634z"/>
	</symbol>
	<symbol id="send" viewBox="0 0 512.001 512.001">
		<path d="M507.608,4.395c-4.243-4.244-10.609-5.549-16.177-3.321L9.43,193.872c-5.515,2.206-9.208,7.458-9.42,13.395
		c-0.211,5.936,3.101,11.437,8.445,14.029l190.068,92.181l92.182,190.068c2.514,5.184,7.764,8.455,13.493,8.455
		c0.178,0,0.357-0.003,0.536-0.01c5.935-0.211,11.189-3.904,13.394-9.419l192.8-481.998
		C513.156,15.001,511.851,8.638,507.608,4.395z M52.094,209.118L434.72,56.069L206.691,284.096L52.094,209.118z M302.883,459.907
		l-74.979-154.599l228.03-228.027L302.883,459.907z"/>
	</symbol>
	<symbol id="geo" viewBox="-68 0 512 512">
		<g>
		<path d="m187.644531 0c-103.46875 0-187.644531 84.175781-187.644531 187.644531 0 47.53125 29.949219 114.6875 89.019531 199.605469 43.175781 62.074219 85.640625 110.109375 87.429688 112.125l11.195312 12.625 11.199219-12.625c1.785156-2.015625 44.25-50.050781 87.429688-112.125 59.066406-84.917969 89.019531-152.074219 89.019531-199.605469 0-103.46875-84.179688-187.644531-187.648438-187.644531zm74.21875 369.914062c-29.183593 41.984376-58.679687 78.117188-74.21875 96.550782-15.5-18.382813-44.886719-54.378906-74.050781-96.308594-54.730469-78.679688-83.660156-141.792969-83.660156-182.511719 0-86.960937 70.75-157.710937 157.710937-157.710937 86.964844 0 157.710938 70.75 157.710938 157.710937 0 40.675781-28.871094 103.703125-83.492188 182.269531zm0 0"/><path d="m187.644531 69.351562c-61.066406 0-110.746093 49.679688-110.746093 110.746094s49.679687 110.75 110.746093 110.75c61.070313 0 110.75-49.683594 110.75-110.75s-49.679687-110.746094-110.75-110.746094zm0 191.5625c-44.558593 0-80.8125-36.253906-80.8125-80.816406 0-44.558594 36.253907-80.8125 80.8125-80.8125 44.5625 0 80.816407 36.253906 80.816407 80.8125 0 44.5625-36.253907 80.816406-80.816407 80.816406zm0 0"/>
		</g>
	</symbol>
	<symbol id="phone-call" viewBox="-21 -21 682 682.66651">
		<path d="m75.71875 640c-18.734375 0-36.972656-6.992188-50.894531-19.691406-15.566407-14.195313-24.492188-34.425782-24.492188-55.488282v-100.933593c0-38.304688 28.585938-70.414063 66.492188-74.683594 22.308593-2.515625 44.464843-7.109375 65.863281-13.652344 26.78125-8.191406 55.628906-1.082031 75.273438 18.558594l40.898437 40.894531c78.324219-42.851562 143.636719-108.164062 186.484375-186.472656l-40.902344-40.898438c-19.640625-19.644531-26.75-48.492187-18.554687-75.277343 6.542969-21.398438 11.136719-43.554688 13.652343-65.859375 4.265626-37.910156 36.375-66.496094 74.679688-66.496094h100.929688c21.066406 0 41.296874 8.925781 55.492187 24.492188 14.257813 15.625 21.316406 36.691406 19.375 57.789062-6.664063 72.421875-25.859375 142.347656-57.054687 207.839844-30.324219 63.671875-71.074219 121.328125-121.125 171.378906-50.046876 50.046875-107.707032 90.804688-171.378907 121.125-65.496093 31.191406-135.421875 50.390625-207.84375 57.058594-2.300781.214844-4.597656.316406-6.894531.316406zm79.222656-217.785156c-2.53125 0-5.105468.378906-7.625 1.148437-24.335937 7.445313-49.53125 12.667969-74.894531 15.527344-12.589844 1.417969-22.089844 12.164063-22.089844 24.996094v100.933593c0 7.148438 2.910157 13.734376 8.191407 18.546876 5.339843 4.878906 12.269531 7.195312 19.503906 6.523437 271.769531-25.011719 487.183594-240.429687 512.199218-512.195313.667969-7.234374-1.652343-14.164062-6.523437-19.507812-4.820313-5.277344-11.40625-8.1875-18.554687-8.1875h-100.929688c-12.832031 0-23.578125 9.496094-25 22.089844-2.855469 25.363281-8.078125 50.558594-15.519531 74.894531-2.773438 9.0625-.441407 18.753906 6.097656 25.292969l66.589844 66.589844-8.007813 16.097656c-49.929687 100.355468-132.714844 183.128906-233.089844 233.070312l-16.097656 8.015625-66.585937-66.589843c-4.714844-4.714844-11.074219-7.246094-17.664063-7.246094zm0 0"/>
	</symbol>
	<symbol id="right-arrow" viewBox="0 0 512.002 512.002">
		<path d="M388.425,241.951L151.609,5.79c-7.759-7.733-20.321-7.72-28.067,0.04c-7.74,7.759-7.72,20.328,0.04,28.067l222.72,222.105
		L123.574,478.106c-7.759,7.74-7.779,20.301-0.04,28.061c3.883,3.89,8.97,5.835,14.057,5.835c5.074,0,10.141-1.932,14.017-5.795
		l236.817-236.155c3.737-3.718,5.834-8.778,5.834-14.05S392.156,245.676,388.425,241.951z"/>
	</symbol>
	<symbol id="left-arrow" viewBox="0 0 443.52 443.52">
		<path d="M143.492,221.863L336.226,29.129c6.663-6.664,6.663-17.468,0-24.132c-6.665-6.662-17.468-6.662-24.132,0l-204.8,204.8
		c-6.662,6.664-6.662,17.468,0,24.132l204.8,204.8c6.78,6.548,17.584,6.36,24.132-0.42c6.387-6.614,6.387-17.099,0-23.712
		L143.492,221.863z"/>
	</symbol>
</svg>