<svg display="none" xmlns="http://www.w3.org/2000/svg">

	<symbol id="logo" viewBox="0 0 256 283">
		<g>
				<path d="M243.263682,54.8723051 L138.401327,2.22885572 C132.033167,-0.742951907 124.81592,-0.742951907 118.447761,2.22885572 L30.1426202,45.9568823 L16.13267,53.1741294 C22.5008292,50.2023217 29.7180763,50.2023217 36.0862355,53.1741294 L85.7578773,75.2504146 L88.305141,76.0995025 L208.026534,138.507463 L87.880597,201.339967 L86.6069652,201.764511 L35.6616915,228.510779 C29.2935323,231.482587 22.0762852,231.907131 15.708126,228.510779 L13.1608624,227.237148 L118.023217,279.456053 C124.391376,282.427861 131.608624,282.427861 137.976783,279.456053 L243.263682,226.812604 C250.905473,222.991708 256,215.349917 256,206.859038 L256,74.8258706 C255.575456,66.3349917 250.905473,58.6932007 243.263682,54.8723051 Z" ></path>
				<path d="M85.7578773,75.2504146 L36.0862355,53.1741294 C29.7180763,50.2023217 22.5008292,49.7777778 16.13267,53.1741294 L13.5854063,54.4477612 C13.1608624,54.4477612 13.1608624,54.8723051 12.7363184,54.8723051 C5.09452736,58.6932007 0,66.3349917 0,74.8258706 L0,206.859038 C0,215.349917 5.09452736,223.416252 12.7363184,227.237148 L15.2835821,228.510779 C21.6517413,231.482587 28.8689884,231.720947 35.2371476,228.74914 L87.0315091,201.722284 L88.305141,76.5240464 L85.7578773,75.2504146 Z" ></path>
		</g>
	</symbol>

	<symbol id="down-arrow" viewBox="0 0 490.688 490.688">
			<path d="M472.328,216.529L245.213,443.665L18.098,216.529c-4.237-4.093-10.99-3.975-15.083,0.262
			c-3.992,4.134-3.992,10.687,0,14.82l234.667,234.667c4.165,4.164,10.917,4.164,15.083,0l234.667-234.667
			c4.093-4.237,3.975-10.99-0.262-15.083c-4.134-3.993-10.687-3.993-14.821,0L472.328,216.529z"/>
			<path d="M472.328,24.529L245.213,251.665L18.098,24.529c-4.237-4.093-10.99-3.975-15.083,0.262
			c-3.992,4.134-3.992,10.687,0,14.821l234.667,234.667c4.165,4.164,10.917,4.164,15.083,0L487.432,39.612
			c4.237-4.093,4.354-10.845,0.262-15.083c-4.093-4.237-10.845-4.354-15.083-0.262c-0.089,0.086-0.176,0.173-0.262,0.262
			L472.328,24.529z"/>
			<path d="M245.213,469.415c-2.831,0.005-5.548-1.115-7.552-3.115L2.994,231.633c-4.093-4.237-3.975-10.99,0.262-15.			083
			c4.134-3.992,10.687-3.992,14.82,0l227.136,227.115l227.115-227.136c4.237-4.093,10.99-3.975,15.083,0.262
			c3.993,4.134,3.993,10.687,0,14.821L252.744,466.279C250.748,468.28,248.04,469.408,245.213,469.415z"/>
			<path d="M245.213,277.415c-2.831,0.005-5.548-1.115-7.552-3.115L2.994,39.633c-4.093-4.237-3.975-10.99,0.262-15.083
			c4.134-3.992,10.687-3.992,14.821,0l227.136,227.115L472.328,24.529c4.093-4.237,10.845-4.354,15.083-0.262
			s4.354,10.845,0.262,15.083c-0.086,0.089-0.173,0.176-0.262,0.262L252.744,274.279C250.748,276.28,248.04,277.408,245.213,277.415z"/>
	</symbol>

	<symbol id="facebook" viewBox="0 0 112.196 112.196">
		<circle cx="56.098" cy="56.098" r="56.098"/>
	<path style="fill:#fff" d="M70.201,58.294h-10.01v36.672H45.025V58.294h-7.213V45.406h7.213v-8.34
		c0-5.964,2.833-15.303,15.301-15.303L71.56,21.81v12.51h-8.151c-1.337,0-3.217,0.668-3.217,3.513v7.585h11.334L70.201,58.294z"/>
	</symbol>

	<symbol id="google" viewBox="0 0 112.196 112.196">
		<g>
		<circle id="XMLID_30_"  cx="56.098" cy="56.097" r="56.098"/>
		<path style="fill:#000;" d="M19.531,58.608c-0.199,9.652,6.449,18.863,15.594,21.867c8.614,2.894,19.205,0.729,24.937-6.648
			c4.185-5.169,5.136-12.06,4.683-18.498c-7.377-0.066-14.754-0.044-22.12-0.033c-0.012,2.628,0,5.246,0.011,7.874
			c4.417,0.122,8.835,0.066,13.252,0.155c-1.115,3.821-3.655,7.377-7.51,8.757c-7.443,3.28-16.94-1.005-19.282-8.813
			c-2.827-7.477,1.801-16.5,9.442-18.675c4.738-1.667,9.619,0.21,13.673,2.673c2.054-1.922,3.976-3.976,5.864-6.052
			c-4.606-3.854-10.525-6.217-16.61-5.698C29.526,35.659,19.078,46.681,19.531,58.608z"/>
		<path  d="M79.102,48.668c-0.022,2.198-0.045,4.407-0.056,6.604c-2.209,0.022-4.406,0.033-6.604,0.044
			c0,2.198,0,4.384,0,6.582c2.198,0.011,4.407,0.022,6.604,0.045c0.022,2.198,0.022,4.395,0.044,6.604c2.187,0,4.385-0.011,6.582,0
			c0.012-2.209,0.022-4.406,0.045-6.615c2.197-0.011,4.406-0.022,6.604-0.033c0-2.198,0-4.384,0-6.582
			c-2.197-0.011-4.406-0.022-6.604-0.044c-0.012-2.198-0.033-4.407-0.045-6.604C83.475,48.668,81.288,48.668,79.102,48.668z"/>
			<path style="fill:#FFFFFF;" d="M19.531,58.608c-0.453-11.927,9.994-22.949,21.933-23.092c6.085-0.519,12.005,1.844,16.61,5.698
				c-1.889,2.077-3.811,4.13-5.864,6.052c-4.054-2.463-8.935-4.34-13.673-2.673c-7.642,2.176-12.27,11.199-9.442,18.675
				c2.342,7.808,11.839,12.093,19.282,8.813c3.854-1.38,6.395-4.936,7.51-8.757c-4.417-0.088-8.835-0.033-13.252-0.155
				c-0.011-2.628-0.022-5.246-0.011-7.874c7.366-0.011,14.743-0.033,22.12,0.033c0.453,6.439-0.497,13.33-4.683,18.498
				c-5.732,7.377-16.322,9.542-24.937,6.648C25.981,77.471,19.332,68.26,19.531,58.608z"/>
			<path style="fill:#FFFFFF;" d="M79.102,48.668c2.187,0,4.373,0,6.57,0c0.012,2.198,0.033,4.407,0.045,6.604
				c2.197,0.022,4.406,0.033,6.604,0.044c0,2.198,0,4.384,0,6.582c-2.197,0.011-4.406,0.022-6.604,0.033
				c-0.022,2.209-0.033,4.406-0.045,6.615c-2.197-0.011-4.396,0-6.582,0c-0.021-2.209-0.021-4.406-0.044-6.604
				c-2.197-0.023-4.406-0.033-6.604-0.045c0-2.198,0-4.384,0-6.582c2.198-0.011,4.396-0.022,6.604-0.044
				C79.057,53.075,79.079,50.866,79.102,48.668z"/>
		</g>
	</symbol>

	<symbol id="pinterest" viewBox="0 0 112.196 112.196">
	<g>
		<circle  cx="56.099" cy="56.1" r="56.098"/>
		<path style="fill:#fff;" d="M60.627,75.122c-4.241-0.328-6.023-2.431-9.349-4.45c-1.828,9.591-4.062,18.785-10.679,23.588
			c-2.045-14.496,2.998-25.384,5.34-36.941c-3.992-6.72,0.48-20.246,8.9-16.913c10.363,4.098-8.972,24.987,4.008,27.596
			c13.551,2.724,19.083-23.513,10.679-32.047c-12.142-12.321-35.343-0.28-32.49,17.358c0.695,4.312,5.151,5.621,1.78,11.571
			c-7.771-1.721-10.089-7.85-9.791-16.021c0.481-13.375,12.018-22.74,23.59-24.036c14.635-1.638,28.371,5.374,30.267,19.14
			C85.015,59.504,76.275,76.33,60.627,75.122L60.627,75.122z"/>
	</g>
	</symbol>

	<symbol id="twitter" viewBox="0 0 291.319 291.319">
		<g>
	<path  d="M145.659,0c80.45,0,145.66,65.219,145.66,145.66c0,80.45-65.21,145.659-145.66,145.659
		S0,226.109,0,145.66C0,65.219,65.21,0,145.659,0z"/>
	<path style="fill:#FFFFFF;" d="M236.724,98.129c-6.363,2.749-13.21,4.597-20.392,5.435c7.338-4.27,12.964-11.016,15.613-19.072
		c-6.864,3.96-14.457,6.828-22.55,8.366c-6.473-6.691-15.695-10.87-25.909-10.87c-19.591,0-35.486,15.413-35.486,34.439
		c0,2.704,0.31,5.335,0.919,7.857c-29.496-1.438-55.66-15.158-73.157-35.996c-3.059,5.089-4.807,10.997-4.807,17.315
		c0,11.944,6.263,22.504,15.786,28.668c-5.826-0.182-11.289-1.721-16.086-4.315v0.437c0,16.696,12.235,30.616,28.476,33.784
		c-2.977,0.783-6.109,1.211-9.35,1.211c-2.285,0-4.506-0.209-6.673-0.619c4.515,13.692,17.625,23.651,33.165,23.925
		c-12.153,9.249-27.457,14.748-44.089,14.748c-2.868,0-5.69-0.164-8.476-0.482c15.722,9.777,34.367,15.485,54.422,15.485
		c65.292,0,100.997-52.51,100.997-98.029l-0.1-4.461C225.945,111.111,231.963,105.048,236.724,98.129z"/>
	</g>
	</symbol>

	<symbol id="monitor"  viewBox="0 0 469.333 469.333">
		<path d="M426.667,21.333h-384C19.093,21.333,0,40.427,0,64v256c0,23.573,19.093,42.667,42.667,42.667H192v42.667h-42.667V448H320
			v-42.667h-42.667v-42.667h149.333c23.573,0,42.667-19.093,42.667-42.667V64C469.333,40.427,450.24,21.333,426.667,21.333z
			 M426.667,320h-384V64h384V320z"/>
	</symbol>

	<symbol id="phone" viewBox="0 0 27.442 27.442">
	<path d="M19.494,0H7.948C6.843,0,5.951,0.896,5.951,1.999v23.446c0,1.102,0.892,1.997,1.997,1.997h11.546
		c1.103,0,1.997-0.895,1.997-1.997V1.999C21.491,0.896,20.597,0,19.494,0z M10.872,1.214h5.7c0.144,0,0.261,0.215,0.261,0.481
		s-0.117,0.482-0.261,0.482h-5.7c-0.145,0-0.26-0.216-0.26-0.482C10.612,1.429,10.727,1.214,10.872,1.214z M13.722,25.469
		c-0.703,0-1.275-0.572-1.275-1.276s0.572-1.274,1.275-1.274c0.701,0,1.273,0.57,1.273,1.274S14.423,25.469,13.722,25.469z
		 M19.995,21.1H7.448V3.373h12.547V21.1z"/>
	</symbol>

	<symbol id="pencil" viewBox="0 0 512 512">
	<path d="M498.125,92.38l-78.505-78.506c-18.496-18.497-48.436-18.5-66.935,0C339.518,27.043,50.046,316.516,44.525,322.035
			c-2.182,2.182-3.725,4.918-4.46,7.915L0.502,491.068c-3.036,12.368,8.186,23.44,20.431,20.432
			c8.361-2.053,153.718-37.747,161.117-39.564c2.996-0.735,5.734-2.278,7.915-4.46c5.816-5.816,293.677-293.677,308.161-308.161
			C516.622,140.818,516.627,110.879,498.125,92.38z M39.957,472.043l1.612-6.562l4.951,4.951L39.957,472.043z M84.874,461.014
			l-33.887-33.887l14.736-60.009l79.16,79.16L84.874,461.014z M178.022,431.647l-97.668-97.668L332.559,81.773l97.668,97.668
			L178.022,431.647z M474.24,135.429l-19.508,19.507l-97.667-97.668l19.507-19.507c5.294-5.293,13.867-5.298,19.163,0l78.506,78.507
			C479.536,121.563,479.536,130.132,474.24,135.429z"/>
	</symbol>

	<symbol id="group" viewBox="0 0 511.999 511.999">
		<g>
		<path d="M438.09,273.32h-39.596c4.036,11.05,6.241,22.975,6.241,35.404v149.65c0,5.182-0.902,10.156-2.543,14.782h65.461
			c24.453,0,44.346-19.894,44.346-44.346v-81.581C512,306.476,478.844,273.32,438.09,273.32z"/>

		<path d="M107.265,308.725c0-12.43,2.205-24.354,6.241-35.404H73.91c-40.754,0-73.91,33.156-73.91,73.91v81.581
			c0,24.452,19.893,44.346,44.346,44.346h65.462c-1.641-4.628-2.543-9.601-2.543-14.783V308.725z"/>

		<path d="M301.261,234.815h-90.522c-40.754,0-73.91,33.156-73.91,73.91v149.65c0,8.163,6.618,14.782,14.782,14.782h208.778
			c8.164,0,14.782-6.618,14.782-14.782v-149.65C375.171,267.971,342.015,234.815,301.261,234.815z"/>

		<path d="M256,38.84c-49.012,0-88.886,39.874-88.886,88.887c0,33.245,18.349,62.28,45.447,77.524
			c12.853,7.23,27.671,11.362,43.439,11.362c15.768,0,30.586-4.132,43.439-11.362c27.099-15.244,45.447-44.28,45.447-77.524
			C344.886,78.715,305.012,38.84,256,38.84z"/>

		<path d="M99.918,121.689c-36.655,0-66.475,29.82-66.475,66.475c0,36.655,29.82,66.475,66.475,66.475
			c9.298,0,18.152-1.926,26.195-5.388c13.906-5.987,25.372-16.585,32.467-29.86c4.98-9.317,7.813-19.946,7.813-31.227
			C166.393,151.51,136.573,121.689,99.918,121.689z"/>

		<path d="M412.082,121.689c-36.655,0-66.475,29.82-66.475,66.475c0,11.282,2.833,21.911,7.813,31.227
			c7.095,13.276,18.561,23.874,32.467,29.86c8.043,3.462,16.897,5.388,26.195,5.388c36.655,0,66.475-29.82,66.475-66.475
			C478.557,151.509,448.737,121.689,412.082,121.689z"/>
			</g>
	</symbol>

	<symbol id="print" viewBox="0 0 512 512">
		<path d="m432 392v-147c0-30.454-14.406-57.603-36.759-75 22.353-17.397 36.759-44.546 36.759-75 0-52.383-42.617-95-95-95h-242c-52.383 0-95 42.617-95 95 0 30.454 14.406 57.603 36.759 75-22.353 17.397-36.759 44.546-36.759 75 0 52.383 42.617 95 95 95h55v112c0 33.084 26.916 60 60 60h242c33.084 0 60-26.916 60-60v-60zm-40-297c0 30.327-24.673 55-55 55h-164.581c11.066-15.532 17.581-34.519 17.581-55s-6.515-39.468-17.581-55h164.581c30.327 0 55 24.673 55 55zm-352 0c0-30.327 24.673-55 55-55s55 24.673 55 55-24.673 55-55 55-55-24.673-55-55zm0 150c0-30.327 24.673-55 55-55s55 24.673 55 55-24.673 55-55 55-55-24.673-55-55zm150 207v-207c0-20.481-6.515-39.468-17.581-55h164.581c30.327 0 55 24.673 55 55v147h-162v60c0 11.028-8.972 20-20 20s-20-8.972-20-20zm282 0c0 11.028-8.972 20-20 20h-185.44c2.22-6.26 3.44-12.989 3.44-20v-20h202z"/>
	</symbol>

	<symbol id="settings" viewBox="0 0 512 512">
		<path style="fill:#fff"  d="M500.6,212.6l-59.9-14.7c-3.3-10.5-7.5-20.7-12.6-30.6l30.6-51c3.6-6,2.7-13.5-2.1-18.3L414,55.4
			c-4.8-4.8-12.3-5.7-18.3-2.1l-51,30.6c-9.9-5.1-20.1-9.3-30.6-12.6l-14.4-59.9C297.9,4.8,291.9,0,285,0h-60
			c-6.9,0-12.9,4.8-14.7,11.4l-14.4,59.9c-10.5,3.3-20.7,7.5-30.6,12.6l-51-30.6c-6-3.6-13.5-2.7-18.3,2.1L53.4,98
			c-4.8,4.8-5.7,12.3-2.1,18.3l30.6,51c-5.1,9.9-9.3,20.1-12.6,30.6l-57.9,14.7C4.8,214.1,0,220.1,0,227v60
			c0,6.9,4.8,12.9,11.4,14.4l57.9,14.7c3.3,10.5,7.5,20.7,12.6,30.6l-30.6,51c-3.6,6-2.7,13.5,2.1,18.3L96,458.6
			c4.8,4.8,12.3,5.7,18.3,2.1l51-30.6c9.9,5.1,20.1,9.3,30.6,12.6l14.4,57.9c1.8,6.6,7.8,11.4,14.7,11.4h60
			c6.9,0,12.9-4.8,14.7-11.4l14.4-57.9c10.5-3.3,20.7-7.5,30.6-12.6l51,30.6c6,3.6,13.5,2.7,18.3-2.1l42.6-42.6
			c4.8-4.8,5.7-12.3,2.1-18.3l-30.6-51c5.1-9.9,9.3-20.1,12.6-30.6l59.9-14.7c6.6-1.5,11.4-7.5,11.4-14.4v-60
			C512,220.1,507.2,214.1,500.6,212.6z M255,332c-41.4,0-75-33.6-75-75c0-41.4,33.6-75,75-75c41.4,0,75,33.6,75,75
			C330,298.4,296.4,332,255,332z"/>
	</symbol>

	<symbol id="email" viewBox="0 0 512 512">
		<path d="M467,61H45C20.218,61,0,81.196,0,106v300c0,24.72,20.128,45,45,45h422c24.72,0,45-20.128,45-45V106
			C512,81.28,491.872,61,467,61z M460.786,91L256.954,294.833L51.359,91H460.786z M30,399.788V112.069l144.479,143.24L30,399.788z
			 M51.213,421l144.57-144.57l50.657,50.222c5.864,5.814,15.327,5.795,21.167-0.046L317,277.213L460.787,421H51.213z M482,399.787
			L338.213,256L482,112.212V399.787z"/>
	</symbol>

	<symbol id="cart" viewBox="0 0 511.999 511.999">
		<path d="M143.022,347.67h16.287h277.692c6.71,0,12.622-4.408,14.538-10.839l59.829-200.888c1.367-4.59,0.485-9.556-2.377-13.396
			c-2.863-3.84-7.371-6.102-12.16-6.102H110.789l-20.412-68.54c-1.915-6.43-7.828-10.838-14.538-10.838H15.169
			C6.792,37.066,0,43.857,0,52.235c0,8.377,6.792,15.169,15.169,15.169H64.53l20.315,68.211c0.062,0.225,0.127,0.448,0.199,0.668
			l53.966,181.202c-30.804,2.072-55.237,27.778-55.237,59.098c0,32.67,26.579,59.249,59.248,59.249h15.059
			c6.581,22.563,27.437,39.102,52.097,39.102c24.659,0,45.516-16.538,52.097-39.102h80.482
			c6.581,22.563,27.437,39.102,52.097,39.102c24.659,0,45.516-16.538,52.097-39.102h19.543c8.377,0,15.169-6.792,15.169-15.169
			c0-8.377-6.792-15.169-15.169-15.169h-19.543c-6.581-22.564-27.437-39.102-52.097-39.102c-24.66,0-45.517,16.538-52.097,39.102
			h-80.482c-6.581-22.564-27.437-39.102-52.097-39.102c-24.66,0-45.517,16.538-52.097,39.102h-15.059
			c-15.942,0-28.911-12.97-28.911-28.912C114.11,360.64,127.08,347.67,143.022,347.67z M365.546,146.781h110.941l-20.88,70.107
			h-90.061V146.781z M365.545,247.226h81.026l-20.879,70.107h-60.147V247.226z M253.304,146.781h81.905v70.107h-81.905V146.781z
			 M253.303,247.226h81.905v70.107h-81.905V247.226z M222.968,317.333L222.968,317.333h-52.349l-20.879-70.107h73.228V317.333z
			 M119.826,146.781h103.141v70.107h-82.262L119.826,146.781z M394.854,396.729c13.197,0,23.933,10.736,23.933,23.933
			s-10.736,23.933-23.933,23.933s-23.933-10.736-23.933-23.933S381.657,396.729,394.854,396.729z M210.178,396.729
			c13.197,0,23.933,10.736,23.933,23.933s-10.736,23.933-23.933,23.933s-23.933-10.736-23.933-23.933
			S196.981,396.729,210.178,396.729z"/>
	</symbol>
	<symbol id="skype" viewBox="0 0 512 512">
		<g>
		<circle  cx="256" cy="256" r="256"/>
		<path  d="M256,0c-11.317,0-22.461,0.744-33.391,2.167C348.216,18.53,445.217,125.933,445.217,256
		s-97.002,237.47-222.609,253.833C233.539,511.256,244.683,512,256,512c141.385,0,256-114.616,256-256S397.385,0,256,0z"/>
		<path style="fill:#fff;" d="M358.315,425.655c-17.987,0-34.897-7.004-47.615-19.723l-2.488-2.488
	c-16.754,5.933-34.317,8.939-52.212,8.939c-86.23,0-156.383-70.153-156.383-156.383c0-17.899,3.007-35.463,8.94-52.211l-2.489-2.489
	c-12.701-12.701-19.695-29.611-19.695-47.616c0.001-18.005,6.995-34.915,19.698-47.616c12.718-12.718,29.627-19.722,47.614-19.722
	s34.897,7.004,47.615,19.723l2.488,2.488c16.755-5.933,34.317-8.94,52.212-8.94c86.23,0,156.383,70.153,156.383,156.383
	c0,17.899-3.007,35.463-8.94,52.211l2.489,2.489c12.701,12.701,19.695,29.611,19.695,47.616
	c-0.001,18.005-6.995,34.915-19.698,47.616C393.212,418.65,376.302,425.655,358.315,425.655z"/>
		<path  d="M222.609,342.817c-23.322,0-42.296-18.974-42.296-42.296c0-11.047,8.988-20.035,20.035-20.035
	c11.047,0,20.035,8.988,20.035,20.035c0,1.228,0.998,2.226,2.226,2.226h55.652c7.365,0,13.357-5.991,13.357-13.357
	s-5.991-13.357-13.357-13.357h-44.522c-29.46,0-53.426-23.967-53.426-53.426s23.966-53.426,53.426-53.426h55.652
	c23.322,0,42.296,18.974,42.296,42.296c0,11.047-8.988,20.035-20.035,20.035s-20.035-8.988-20.035-20.035
	c0-1.228-0.998-2.226-2.226-2.226h-55.652c-7.365,0-13.357,5.992-13.357,13.357c0,7.365,5.992,13.357,13.357,13.357h44.522
	c29.46,0,53.426,23.967,53.426,53.426c0,29.459-23.966,53.426-53.426,53.426H222.609z"/>
	</g>
	</symbol>

</svg>